<?xml version="1.0" encoding="UTF-8"?>
<svg xmlns="http://www.w3.org/2000/svg" xmlns:xlink="http://www.w3.org/1999/xlink" width="300px" height="300px" viewBox="0 0 300 300" version="1.1">
<g id="surface1">
<path style="fill-rule:nonzero;fill:rgb(0%,0%,0%);fill-opacity:1;stroke-width:1;stroke-linecap:butt;stroke-linejoin:miter;stroke:rgb(0%,0%,0%);stroke-opacity:1;stroke-miterlimit:4;" d="M 2106.908645 194.140131 C 2123.363879 192.524894 2126.574164 196.865845 2124.050355 203.791177 C 2054.292275 259.98126 2039.028278 346.578195 2039.028278 578.061955 L 2039.028278 773.081724 L 1996.910954 773.081724 L 1996.910954 333.070769 C 1996.910954 305.430013 1960.164295 304.319537 1960.164295 333.070769 L 1960.164295 773.081724 L 1918.04697 773.081724 L 1918.04697 578.061955 C 1918.04697 346.578195 1902.782974 259.98126 1833.024893 203.791177 C 1830.501084 196.865845 1833.711369 192.524894 1850.166604 194.140131 Z M 2106.908645 194.140131 " transform="matrix(0.19347,0,0,0.19347,-232.361834,50.873308)"/>
<path style="fill-rule:nonzero;fill:rgb(0%,0%,0%);fill-opacity:1;stroke-width:1;stroke-linecap:butt;stroke-linejoin:miter;stroke:rgb(0%,0%,0%);stroke-opacity:1;stroke-miterlimit:4;" d="M 2225.790144 300.927537 C 2167.298346 275.729829 2055.685418 317.342391 2067.234367 442.361793 L 2067.234367 659.510319 C 2076.643127 643.842513 2086.920078 628.174707 2105.616455 612.527091 L 2104.102169 453.951124 C 2109.533406 427.501606 2140.202733 438.101604 2140.08159 453.446363 L 2140.08159 578.082146 C 2160.029776 561.182721 2181.896058 548.583866 2207.214909 543.798724 L 2205.801576 353.786193 C 2205.337196 343.751528 2203.237386 329.315341 2215.513193 320.653629 C 2225.123858 313.88982 2234.673951 306.58087 2225.790144 300.927537 Z M 2225.790144 300.927537 " transform="matrix(0.19347,0,0,0.19347,-232.361834,50.873308)"/>
<path style="fill-rule:nonzero;fill:rgb(0%,0%,0%);fill-opacity:1;stroke-width:1;stroke-linecap:butt;stroke-linejoin:miter;stroke:rgb(0%,0%,0%);stroke-opacity:1;stroke-miterlimit:4;" d="M 1727.065296 300.927537 C 1785.557093 275.729829 1897.170022 317.342391 1885.641263 442.361793 L 1885.641263 659.510319 C 1876.212312 643.842513 1865.935362 628.174707 1847.238985 612.527091 L 1848.753271 453.951124 C 1843.322034 427.501606 1812.652707 438.101604 1812.77385 453.446363 L 1812.77385 578.082146 C 1792.825663 561.182721 1770.959382 548.583866 1745.64053 543.798724 L 1747.053863 353.786193 C 1747.518244 343.751528 1749.618053 329.315341 1737.342246 320.653629 C 1727.731582 313.88982 1718.181489 306.58087 1727.065296 300.927537 Z M 1727.065296 300.927537 " transform="matrix(0.19347,0,0,0.19347,-232.361834,50.873308)"/>
<path style="fill-rule:nonzero;fill:rgb(0%,0%,0%);fill-opacity:1;stroke-width:1;stroke-linecap:butt;stroke-linejoin:miter;stroke:rgb(0%,0%,0%);stroke-opacity:1;stroke-miterlimit:4;" d="M 1663.990262 539.235678 C 1663.990262 539.235678 1663.990262 408.320658 1663.990262 378.620474 C 1655.187216 353.160288 1674.792164 359.944287 1683.17121 367.515714 C 1708.490062 387.403329 1708.106443 419.869608 1709.439014 444.279888 L 1709.439014 539.235678 Z M 1663.990262 539.235678 " transform="matrix(0.19347,0,0,0.19347,-232.361834,50.873308)"/>
<path style="fill-rule:nonzero;fill:rgb(0%,0%,0%);fill-opacity:1;stroke-width:1;stroke-linecap:butt;stroke-linejoin:miter;stroke:rgb(0%,0%,0%);stroke-opacity:1;stroke-miterlimit:4;" d="M 2284.362703 539.235678 C 2284.362703 539.235678 2284.362703 408.320658 2284.362703 378.620474 C 2293.165748 353.160288 2273.5608 359.944287 2265.181754 367.515714 C 2239.862903 387.403329 2240.246521 419.869608 2238.91395 444.279888 L 2238.91395 539.235678 Z M 2284.362703 539.235678 " transform="matrix(0.19347,0,0,0.19347,-232.361834,50.873308)"/>
<path style="fill-rule:nonzero;fill:rgb(0%,0%,0%);fill-opacity:1;stroke-width:1;stroke-linecap:butt;stroke-linejoin:miter;stroke:rgb(0%,0%,0%);stroke-opacity:1;stroke-miterlimit:4;" d="M 2051.425228 773.081724 C 2133.600449 541.678725 2284.68575 526.414728 2395.713155 628.073754 C 2412.047247 643.014704 2402.31544 653.170511 2380.004968 645.215465 C 2272.369562 632.071468 2221.025192 697.993359 2175.717773 772.354867 L 2130.006545 772.354867 C 2156.112825 725.977353 2167.581013 685.313742 2237.137189 644.508798 C 2248.968805 637.563276 2237.278522 615.414328 2219.995478 622.359851 C 2150.721969 650.242892 2119.204642 706.513738 2097.136456 773.081724 Z M 2051.425228 773.081724 " transform="matrix(0.19347,0,0,0.19347,-232.361834,50.873308)"/>
<path style="fill-rule:nonzero;fill:rgb(0%,0%,0%);fill-opacity:1;stroke-width:1;stroke-linecap:butt;stroke-linejoin:miter;stroke:rgb(0%,0%,0%);stroke-opacity:1;stroke-miterlimit:4;" d="M 1903.853069 773.081724 C 1821.677848 541.678725 1670.612737 526.414728 1559.565141 628.073754 C 1543.25124 643.014704 1552.983047 653.170511 1575.293519 645.215465 C 1682.928925 632.071468 1734.253104 697.993359 1779.580714 772.354867 L 1825.291942 772.354867 C 1799.185662 725.977353 1787.717474 685.313742 1718.141108 644.508798 C 1706.309491 637.563276 1718.019965 615.414328 1735.282818 622.359851 C 1804.556328 650.242892 1836.073654 706.513738 1858.14184 773.081724 Z M 1903.853069 773.081724 " transform="matrix(0.19347,0,0,0.19347,-232.361834,50.873308)"/>
<path style="fill-rule:nonzero;fill:rgb(0%,0%,0%);fill-opacity:1;stroke-width:1;stroke-linecap:butt;stroke-linejoin:miter;stroke:rgb(0%,0%,0%);stroke-opacity:1;stroke-miterlimit:4;" d="M 2027.943709 803.952955 L 2028.286947 848.069137 L 2148.662541 848.069137 C 2170.326917 852.975421 2178.241582 863.676371 2179.00882 875.225321 L 2027.943709 875.225321 L 2027.943709 959.500351 L 2241.518521 959.500351 C 2259.87166 958.127399 2255.99509 946.053497 2255.793185 932.364357 C 2255.005756 875.629131 2209.476242 804.800955 2145.65416 803.952955 Z M 2027.943709 803.952955 " transform="matrix(0.19347,0,0,0.19347,-232.361834,50.873308)"/>
<path style="fill-rule:nonzero;fill:rgb(0%,0%,0%);fill-opacity:1;stroke-width:3;stroke-linecap:round;stroke-linejoin:bevel;stroke:rgb(0%,0%,0%);stroke-opacity:1;stroke-miterlimit:4;" d="M 412.137626 836.701901 C 412.137626 857.053897 395.64201 873.569703 375.269824 873.569703 C 354.917829 873.569703 338.402022 857.053897 338.402022 836.701901 C 338.402022 816.329715 354.917829 799.834099 375.269824 799.834099 C 395.64201 799.834099 412.137626 816.329715 412.137626 836.701901 Z M 412.137626 836.701901 " transform="matrix(0.19347,0,0,0.19347,77.82234,50.873308)"/>
<path style="fill-rule:nonzero;fill:rgb(0%,0%,0%);fill-opacity:1;stroke-width:1;stroke-linecap:butt;stroke-linejoin:miter;stroke:rgb(0%,0%,0%);stroke-opacity:1;stroke-miterlimit:4;" d="M 1928.929635 803.952955 L 1928.586397 848.069137 L 1808.210803 848.069137 C 1786.546427 852.975421 1778.631762 863.676371 1777.864524 875.225321 L 1928.929635 875.225321 L 1928.929635 959.500351 L 1715.354823 959.500351 C 1697.001684 958.127399 1700.878254 946.053497 1701.080159 932.364357 C 1701.867587 875.629131 1747.397101 804.800955 1811.219183 803.952955 Z M 1928.929635 803.952955 " transform="matrix(0.19347,0,0,0.19347,-232.361834,50.873308)"/>
<path style="fill-rule:nonzero;fill:rgb(0%,0%,0%);fill-opacity:1;stroke-width:1;stroke-linecap:butt;stroke-linejoin:miter;stroke:rgb(0%,0%,0%);stroke-opacity:1;stroke-miterlimit:4;" d="M 2203.782529 782.510674 C 2249.069758 696.983835 2312.205363 661.367843 2391.755823 663.790699 C 2425.272006 664.820413 2440.515813 686.222313 2443.180955 712.368975 C 2336.252216 697.165549 2277.518133 742.190302 2238.89376 812.352192 C 2229.04081 797.532385 2217.613002 786.750673 2203.782529 782.510674 Z M 2203.782529 782.510674 " transform="matrix(0.19347,0,0,0.19347,-232.361834,50.873308)"/>
<path style="fill-rule:nonzero;fill:rgb(0%,0%,0%);fill-opacity:1;stroke-width:1;stroke-linecap:butt;stroke-linejoin:miter;stroke:rgb(0%,0%,0%);stroke-opacity:1;stroke-miterlimit:4;" d="M 1748.891196 782.510674 C 1703.603968 696.983835 1640.468362 661.367843 1560.917903 663.790699 C 1527.401719 664.820413 1512.157913 686.222313 1509.492771 712.368975 C 1616.42151 697.165549 1675.155593 742.190302 1713.779966 812.352192 C 1723.632916 797.532385 1735.060723 786.750673 1748.891196 782.510674 Z M 1748.891196 782.510674 " transform="matrix(0.19347,0,0,0.19347,-232.361834,50.873308)"/>
<path style="fill-rule:nonzero;fill:rgb(0%,0%,0%);fill-opacity:1;stroke-width:1;stroke-linecap:butt;stroke-linejoin:miter;stroke:rgb(0%,0%,0%);stroke-opacity:1;stroke-miterlimit:4;" d="M 1918.89497 989.503392 L 1967.331912 927.659977 C 1978.618386 912.012361 1978.073243 913.183409 1989.178003 927.659977 L 2038.180278 989.503392 C 2015.284283 989.604345 1997.839715 996.933486 1985.119718 1018.678624 C 1978.053053 1033.781097 1978.901053 1030.732336 1971.894959 1018.678624 C 1959.174962 997.014248 1941.750584 989.604345 1918.89497 989.503392 Z M 1918.89497 989.503392 " transform="matrix(0.19347,0,0,0.19347,-232.361834,50.873308)"/>
<path style="fill-rule:nonzero;fill:rgb(0%,0%,0%);fill-opacity:1;stroke-width:6.075549;stroke-linecap:round;stroke-linejoin:bevel;stroke:rgb(0%,0%,0%);stroke-opacity:1;stroke-miterlimit:4;" d="M 236.201539 -1544.6739 L 236.201539 -1449.576777 C 207.732974 -1444.105159 179.991266 -1436.634684 153.077366 -1427.347067 L 105.548996 -1509.683812 L -94.013629 -1394.436598 L -46.424687 -1311.97871 C -68.089063 -1293.181381 -88.400678 -1272.869766 -107.198007 -1251.20539 L -189.655895 -1298.794332 L -304.903108 -1099.231708 L -222.566364 -1051.703337 C -231.853981 -1024.789438 -239.324456 -997.047729 -244.796074 -968.579164 L -339.893196 -968.579164 L -339.893196 -738.125117 L -244.796074 -738.125117 C -239.324456 -709.656552 -231.853981 -681.914843 -222.566364 -655.000944 L -304.903108 -607.472573 L -189.655895 -407.909949 L -107.198007 -455.498891 C -88.400678 -433.834514 -68.089063 -413.5229 -46.424687 -394.72557 L -94.013629 -312.267683 L 105.548996 -197.020469 L 153.077366 -279.357214 C 179.991266 -270.069597 207.732974 -262.599122 236.201539 -257.127504 L 236.201539 -162.030381 L 466.655586 -162.030381 L 466.655586 -257.127504 C 495.124152 -262.599122 522.86586 -270.069597 549.779759 -279.357214 L 597.30813 -197.020469 L 796.870755 -312.267683 L 749.281812 -394.72557 C 770.946189 -413.5229 791.257803 -433.834514 810.055133 -455.498891 L 892.51302 -407.909949 L 1007.760234 -607.472573 L 925.423489 -655.000944 C 934.711107 -681.914843 942.181581 -709.656552 947.653199 -738.125117 L 1042.750322 -738.125117 L 1042.750322 -968.579164 L 947.653199 -968.579164 C 942.181581 -997.047729 934.711107 -1024.789438 925.423489 -1051.703337 L 1007.760234 -1099.231708 L 892.51302 -1298.794332 L 810.055133 -1251.20539 C 791.257803 -1272.869766 770.946189 -1293.181381 749.281812 -1311.97871 L 796.870755 -1394.436598 L 597.30813 -1509.683812 L 549.779759 -1427.347067 C 522.86586 -1436.634684 495.124152 -1444.105159 466.655586 -1449.576777 L 466.655586 -1544.6739 Z M 296.752765 -1488.544388 L 406.06398 -1488.544388 L 406.06398 -1393.305931 C 465.423967 -1387.369933 521.957289 -1371.904031 574.109278 -1348.402322 L 621.67803 -1430.759257 L 716.351153 -1376.12384 L 668.721829 -1293.665952 C 716.007915 -1259.523864 757.559906 -1217.951683 791.701994 -1170.665597 L 874.159881 -1218.27473 L 928.835679 -1123.621798 L 846.478744 -1076.053046 C 869.980454 -1023.901057 885.446355 -967.347545 891.382354 -907.987557 L 986.62081 -907.987557 L 986.62081 -798.716723 L 891.382354 -798.716723 C 885.446355 -739.356736 869.980454 -682.803224 846.478744 -630.651235 L 928.835679 -583.082483 L 874.159881 -488.429551 L 791.742375 -536.038683 C 757.600287 -488.752598 716.028105 -447.180416 668.74202 -413.038328 L 716.351153 -330.580441 L 621.67803 -275.945024 L 574.109278 -358.301959 C 521.957289 -334.80025 465.423967 -319.334348 406.06398 -313.398349 L 406.06398 -218.159893 L 296.752765 -218.159893 L 296.752765 -313.398349 C 237.392777 -319.334348 180.879646 -334.80025 128.727657 -358.301959 L 81.158905 -275.945024 L -13.514217 -330.580441 L 34.115106 -413.038328 C -13.170979 -447.180416 -54.743161 -488.752598 -88.885249 -536.038683 L -171.343137 -488.429551 L -226.018935 -583.082483 L -143.641809 -630.651235 C -167.143518 -682.803224 -182.62961 -739.356736 -188.565609 -798.716723 L -283.804065 -798.716723 L -283.804065 -907.987557 L -188.565609 -907.987557 C -182.62961 -967.347545 -167.143518 -1023.901057 -143.641809 -1076.053046 L -226.018935 -1123.621798 L -171.343137 -1218.27473 L -88.90544 -1170.665597 C -54.783542 -1217.951683 -13.21136 -1259.523864 34.074725 -1293.665952 L -13.514217 -1376.12384 L 81.158905 -1430.759257 L 128.727657 -1348.402322 C 180.879646 -1371.904031 237.392777 -1387.369933 296.752765 -1393.305931 Z M 296.752765 -1488.544388 " transform="matrix(0.19347,0,0,0.19347,82.009127,315.098013)"/>
<path style="fill:none;stroke-width:30;stroke-linecap:round;stroke-linejoin:bevel;stroke:rgb(0%,0%,0%);stroke-opacity:1;stroke-miterlimit:4;" d="M 1085.715646 -853.35214 C 1085.715646 -447.826512 756.954192 -119.065057 351.428563 -119.065057 C -54.097066 -119.065057 -382.858521 -447.826512 -382.858521 -853.35214 C -382.858521 -1258.877769 -54.097066 -1587.639224 351.428563 -1587.639224 C 756.954192 -1587.639224 1085.715646 -1258.877769 1085.715646 -853.35214 Z M 1085.715646 -853.35214 " transform="matrix(0.19347,0,0,0.19347,82.009127,315.098013)"/>
<path style=" stroke:none;fill-rule:nonzero;fill:rgb(0%,0%,0%);fill-opacity:1;" d="M 234.039062 131.984375 C 234.371094 131.894531 234.652344 131.691406 234.878906 131.378906 L 239.445312 124.933594 L 242.269531 126.65625 L 237.640625 133.171875 C 236.898438 134.21875 236 134.882812 234.941406 135.164062 C 232.039062 135.9375 230.148438 134.683594 229.269531 131.394531 L 228.398438 128.121094 C 227.9375 126.382812 228.441406 124.53125 229.917969 122.570312 L 232.554688 124.097656 C 232.460938 124.125 232.277344 124.445312 232.007812 125.066406 C 231.6875 125.789062 231.589844 126.386719 231.714844 126.855469 L 232.71875 130.625 C 233.003906 131.691406 233.445312 132.144531 234.039062 131.984375 Z M 234.039062 131.984375 "/>
<path style=" stroke:none;fill-rule:nonzero;fill:rgb(0%,0%,0%);fill-opacity:1;" d="M 226.25 121.320312 L 225.070312 118.433594 L 240.167969 112.273438 L 241.347656 115.164062 Z M 226.25 121.320312 "/>
<path style=" stroke:none;fill-rule:nonzero;fill:rgb(0%,0%,0%);fill-opacity:1;" d="M 232.859375 109.9375 L 231.46875 107.128906 L 234.28125 105.738281 L 235.667969 108.550781 Z M 224.390625 108.679688 L 221.222656 110.246094 L 222.578125 112.984375 C 223.6875 115.230469 225.53125 115.714844 228.105469 114.441406 C 229.09375 113.953125 230.371094 112.492188 231.929688 110.058594 L 229.011719 108.359375 L 227.242188 110.929688 C 227.074219 111.167969 226.894531 111.339844 226.695312 111.4375 C 226.1875 111.6875 225.769531 111.476562 225.4375 110.804688 Z M 224.390625 108.679688 "/>
<path style=" stroke:none;fill-rule:nonzero;fill:rgb(0%,0%,0%);fill-opacity:1;" d="M 228.347656 96 L 226.707031 93.742188 L 224.40625 95.414062 L 226.050781 97.671875 Z M 226.300781 93.1875 L 224.675781 90.953125 L 222.378906 92.625 L 224.003906 94.859375 Z M 229.984375 92.601562 L 228.308594 90.304688 L 226.042969 91.953125 L 227.714844 94.253906 Z M 213.324219 94.910156 C 211.773438 95.113281 210.492188 94.519531 209.480469 93.128906 L 209.027344 92.507812 L 211.882812 90.429688 L 212.195312 90.859375 C 212.550781 91.351562 212.882812 91.640625 213.183594 91.726562 C 213.636719 91.851562 214.214844 91.660156 214.921875 91.148438 L 217.777344 89.070312 L 219.613281 91.59375 C 216.640625 93.757812 215.613281 95.46875 216.53125 96.730469 C 217.09375 97.5 217.96875 97.453125 219.160156 96.585938 L 221.832031 94.640625 L 223.722656 97.238281 C 222.460938 98.15625 221.597656 98.867188 221.132812 99.367188 C 220.089844 100.496094 219.855469 101.453125 220.425781 102.238281 C 220.957031 102.964844 221.765625 102.933594 222.855469 102.140625 L 225.753906 100.03125 L 227.589844 102.554688 C 225.707031 103.921875 224.589844 105.03125 224.234375 105.878906 C 223.964844 106.523438 224.105469 107.226562 224.660156 107.992188 L 225.089844 108.578125 L 222.234375 110.65625 L 221.789062 110.046875 C 220.9375 108.878906 220.789062 107.53125 221.335938 106.007812 C 219.808594 106.183594 218.652344 105.738281 217.875 104.667969 C 217.003906 103.46875 216.769531 102.109375 217.175781 100.582031 C 216.527344 100.691406 215.859375 100.566406 215.179688 100.199219 C 214.570312 99.871094 214.054688 99.417969 213.632812 98.839844 C 213.222656 98.277344 212.984375 97.632812 212.917969 96.910156 C 212.839844 96.15625 212.976562 95.492188 213.324219 94.910156 Z M 213.324219 94.910156 "/>
<path style=" stroke:none;fill-rule:nonzero;fill:rgb(0%,0%,0%);fill-opacity:1;" d="M 204.117188 84.011719 C 204.378906 84.25 204.664062 84.425781 204.976562 84.542969 C 205.394531 84.699219 205.707031 84.664062 205.90625 84.441406 C 206.179688 84.140625 206.371094 83.796875 206.476562 83.40625 L 207.871094 78.292969 C 208.0625 77.597656 208.335938 77.054688 208.695312 76.660156 C 209.40625 75.878906 210.332031 75.769531 211.476562 76.332031 L 219.042969 80.082031 L 218.320312 82.664062 L 211.832031 79.285156 C 211.402344 79.0625 211.078125 79.070312 210.859375 79.3125 C 210.753906 79.429688 210.664062 79.621094 210.597656 79.894531 L 209.355469 84.738281 C 208.800781 86.921875 209.332031 88.753906 210.957031 90.230469 L 211.503906 90.730469 L 209.128906 93.34375 L 208.570312 92.835938 C 207.894531 92.21875 207.359375 91.484375 206.96875 90.628906 C 206.523438 89.636719 206.417969 88.757812 206.65625 87.984375 C 205.03125 88.578125 203.390625 88.125 201.742188 86.625 L 199.609375 84.683594 L 201.984375 82.074219 Z M 211.660156 73.476562 L 219.890625 77.617188 L 219.316406 79.332031 L 211.164062 75.261719 Z M 211.660156 73.476562 "/>
<path style=" stroke:none;fill-rule:nonzero;fill:rgb(0%,0%,0%);fill-opacity:1;" d="M 200.113281 85.234375 L 197.875 83.660156 C 196.734375 82.855469 196.230469 81.75 196.363281 80.332031 C 196.472656 79.199219 196.960938 78.015625 197.832031 76.773438 L 203.996094 68.011719 L 206.546875 69.804688 L 201.027344 77.660156 C 200.421875 78.519531 200.085938 79.195312 200.019531 79.6875 C 199.921875 80.394531 200.257812 81.019531 201.03125 81.5625 L 202.144531 82.34375 Z M 200.113281 85.234375 "/>
<path style=" stroke:none;fill-rule:nonzero;fill:rgb(0%,0%,0%);fill-opacity:1;" d="M 194.738281 76.253906 C 194.058594 77.5625 192.996094 78.246094 191.542969 78.308594 C 190.40625 78.355469 189.175781 78.035156 187.855469 77.347656 C 186.25 76.515625 185.222656 75.4375 184.773438 74.109375 C 184.324219 72.785156 184.511719 71.324219 185.339844 69.726562 C 185.90625 68.640625 186.738281 67.828125 187.835938 67.296875 C 189.039062 66.71875 190.171875 66.703125 191.226562 67.253906 C 192.457031 67.890625 193.507812 69.179688 194.375 71.121094 C 195.3125 73.207031 195.433594 74.917969 194.738281 76.253906 Z M 191.765625 74.402344 C 192.066406 73.820312 191.941406 73.027344 191.394531 72.015625 C 190.910156 71.128906 190.429688 70.5625 189.953125 70.316406 C 189.625 70.144531 189.257812 70.171875 188.851562 70.398438 C 188.484375 70.609375 188.210938 70.882812 188.035156 71.226562 C 187.722656 71.832031 187.714844 72.433594 188.019531 73.039062 C 188.28125 73.582031 188.726562 74.015625 189.355469 74.339844 C 190.636719 75.007812 191.441406 75.027344 191.765625 74.402344 Z M 191.765625 74.402344 "/>
<path style=" stroke:none;fill-rule:nonzero;fill:rgb(0%,0%,0%);fill-opacity:1;" d="M 163.226562 64.609375 C 167.199219 60.71875 170.511719 59.050781 173.160156 59.605469 C 174.386719 59.859375 175.339844 60.597656 176.023438 61.8125 C 176.679688 62.976562 176.878906 64.179688 176.621094 65.421875 C 176.207031 67.40625 175.308594 68.804688 173.933594 69.617188 C 172.773438 70.300781 171.476562 70.492188 170.042969 70.195312 L 164.347656 69.003906 C 162.40625 68.597656 161.234375 67.648438 160.835938 66.148438 C 160.359375 66.753906 159.882812 67.148438 159.410156 67.339844 C 158.714844 67.617188 157.746094 67.625 156.5 67.363281 L 155.738281 67.207031 L 156.460938 63.75 L 157.015625 63.863281 C 158.164062 64.105469 158.84375 63.71875 159.054688 62.710938 L 159.8125 59.085938 L 162.933594 59.738281 L 162.382812 62.367188 C 162.308594 62.726562 162.355469 63.136719 162.527344 63.589844 C 162.695312 64.046875 162.929688 64.382812 163.226562 64.609375 Z M 170.460938 66.648438 C 172.261719 67.023438 173.324219 66.457031 173.640625 64.945312 C 173.753906 64.402344 173.644531 63.925781 173.308594 63.515625 C 172.976562 63.101562 172.535156 62.839844 171.984375 62.722656 C 171.207031 62.5625 170.292969 62.773438 169.242188 63.367188 C 168.464844 63.796875 167.390625 64.582031 166.019531 65.71875 Z M 170.460938 66.648438 "/>
<path style=" stroke:none;fill-rule:nonzero;fill:rgb(0%,0%,0%);fill-opacity:1;" d="M 153.429688 57.089844 L 150.296875 56.972656 L 150.414062 53.839844 L 153.546875 53.957031 Z M 156.363281 67.777344 L 155.636719 67.75 C 154.964844 67.722656 154.332031 67.507812 153.734375 67.101562 C 153.136719 66.695312 152.703125 66.183594 152.433594 65.5625 C 151.742188 66.914062 150.613281 67.558594 149.054688 67.5 L 147.386719 67.4375 L 147.519531 63.910156 L 148.128906 63.933594 C 149.390625 63.980469 150.046875 63.292969 150.097656 61.875 L 150.230469 58.398438 L 153.347656 58.515625 L 153.28125 60.300781 C 153.1875 62.847656 154.054688 64.15625 155.886719 64.222656 L 156.496094 64.246094 Z M 156.363281 67.777344 "/>
<path style=" stroke:none;fill-rule:nonzero;fill:rgb(0%,0%,0%);fill-opacity:1;" d="M 148.113281 67.339844 L 147.03125 67.425781 C 146.1875 67.492188 145.234375 67.265625 144.164062 66.738281 C 143.484375 66.40625 142.96875 66.085938 142.617188 65.789062 C 141.492188 67.203125 140.140625 67.976562 138.570312 68.101562 L 136.300781 68.28125 L 136.019531 64.761719 L 137.007812 64.683594 C 138.328125 64.578125 139.304688 64.359375 139.941406 64.023438 C 138.949219 63.335938 138.300781 62.851562 137.996094 62.574219 C 137.1875 61.878906 136.761719 61.253906 136.71875 60.699219 C 136.65625 59.910156 137.316406 59.210938 138.699219 58.605469 C 139.769531 58.140625 140.785156 57.867188 141.753906 57.789062 C 142.71875 57.714844 143.566406 57.832031 144.289062 58.144531 C 145.195312 58.542969 145.683594 59.179688 145.753906 60.058594 C 145.792969 60.558594 145.746094 60.988281 145.605469 61.34375 C 145.441406 61.753906 145.03125 62.46875 144.371094 63.484375 C 144.851562 63.855469 145.539062 64.003906 146.433594 63.929688 L 147.832031 63.820312 Z M 148.113281 67.339844 "/>
<path style=" stroke:none;fill-rule:nonzero;fill:rgb(0%,0%,0%);fill-opacity:1;" d="M 133.511719 57.492188 L 130.773438 58.042969 L 130.222656 55.277344 L 132.957031 54.730469 Z M 129.816406 58.234375 L 127.078125 58.78125 L 126.527344 56.019531 L 129.261719 55.472656 Z M 137.019531 68.269531 L 136.304688 68.410156 C 135.648438 68.542969 134.980469 68.480469 134.304688 68.226562 C 133.628906 67.96875 133.089844 67.574219 132.683594 67.03125 C 132.324219 68.507812 131.378906 69.398438 129.847656 69.707031 L 128.214844 70.03125 L 127.519531 66.570312 L 128.117188 66.449219 C 129.351562 66.203125 129.832031 65.382812 129.554688 63.992188 L 128.871094 60.582031 L 131.929688 59.96875 L 132.28125 61.71875 C 132.78125 64.21875 133.929688 65.285156 135.730469 64.925781 L 136.324219 64.804688 Z M 137.019531 68.269531 "/>
<path style=" stroke:none;fill-rule:nonzero;fill:rgb(0%,0%,0%);fill-opacity:1;" d="M 128.769531 69.308594 L 127.945312 69.632812 C 128.265625 70.453125 128.40625 71.203125 128.359375 71.886719 C 128.234375 73.667969 127.324219 75.382812 125.628906 77.03125 C 124.1875 78.429688 122.523438 79.496094 120.636719 80.234375 C 116.195312 81.976562 113.046875 80.480469 111.195312 75.75 C 110.773438 74.675781 110.542969 73.320312 110.496094 71.679688 L 113.375 71.488281 C 113.464844 72.5625 113.679688 73.535156 114.019531 74.402344 C 115.089844 77.136719 117.023438 77.957031 119.8125 76.867188 C 122.851562 75.675781 124.675781 74.195312 125.289062 72.421875 C 125.339844 72.265625 125.34375 72.125 125.292969 71.992188 C 125.222656 71.820312 125.070312 71.738281 124.828125 71.75 C 124.027344 71.769531 122.097656 72 119.03125 72.441406 L 118.738281 69.445312 L 127.484375 66.023438 Z M 128.769531 69.308594 "/>
<path style=" stroke:none;fill-rule:nonzero;fill:rgb(0%,0%,0%);fill-opacity:1;" d="M 104.542969 80.425781 L 101.964844 82.1875 L 92.761719 68.726562 L 95.339844 66.964844 Z M 104.542969 80.425781 "/>
<path style=" stroke:none;fill-rule:nonzero;fill:rgb(0%,0%,0%);fill-opacity:1;" d="M 87.269531 89.132812 C 86.378906 83.644531 86.921875 79.976562 88.902344 78.128906 C 89.816406 77.277344 90.96875 76.921875 92.355469 77.0625 C 93.683594 77.195312 94.78125 77.726562 95.648438 78.652344 C 97.03125 80.136719 97.660156 81.671875 97.53125 83.265625 C 97.421875 84.609375 96.832031 85.78125 95.761719 86.78125 L 91.507812 90.75 C 90.054688 92.105469 88.605469 92.511719 87.152344 91.976562 C 87.367188 92.710938 87.417969 93.328125 87.300781 93.824219 C 87.128906 94.554688 86.574219 95.351562 85.648438 96.21875 L 85.078125 96.75 L 82.667969 94.167969 L 83.082031 93.78125 C 83.941406 92.980469 84.019531 92.203125 83.3125 91.449219 L 80.785156 88.742188 L 83.117188 86.566406 L 84.949219 88.53125 C 85.203125 88.800781 85.5625 88.996094 86.03125 89.121094 C 86.503906 89.242188 86.914062 89.246094 87.269531 89.132812 Z M 93.101562 84.394531 C 94.449219 83.136719 94.597656 81.945312 93.542969 80.816406 C 93.164062 80.410156 92.710938 80.226562 92.183594 80.261719 C 91.652344 80.296875 91.183594 80.503906 90.769531 80.890625 C 90.191406 81.429688 89.839844 82.300781 89.71875 83.5 C 89.625 84.382812 89.648438 85.714844 89.785156 87.492188 Z M 93.101562 84.394531 "/>
<path style=" stroke:none;fill-rule:nonzero;fill:rgb(0%,0%,0%);fill-opacity:1;" d="M 77.839844 96.277344 C 77.535156 96.054688 77.191406 96.011719 76.816406 96.152344 C 76.492188 96.265625 76.214844 96.484375 75.980469 96.804688 C 75.382812 97.625 75.40625 98.265625 76.046875 98.734375 C 76.386719 98.984375 76.832031 99.070312 77.382812 98.992188 C 77.820312 98.929688 78.183594 98.804688 78.46875 98.621094 C 78.574219 98.316406 78.585938 97.9375 78.511719 97.488281 C 78.417969 96.941406 78.195312 96.539062 77.839844 96.277344 Z M 78.582031 106.402344 L 75.730469 104.320312 L 77.777344 101.523438 C 76.421875 101.789062 75.28125 101.582031 74.347656 100.902344 C 73.324219 100.152344 72.761719 99.253906 72.660156 98.210938 C 72.5625 97.210938 72.890625 96.191406 73.652344 95.152344 C 75.347656 92.832031 77.257812 92.449219 79.386719 94.003906 C 79.941406 94.40625 80.375 94.976562 80.683594 95.703125 C 80.953125 96.324219 81.046875 96.804688 80.976562 97.144531 L 82.988281 94.386719 L 85.839844 96.472656 L 84.582031 98.191406 C 84.21875 98.6875 83.601562 99.191406 82.726562 99.699219 C 81.964844 100.148438 81.382812 100.402344 80.988281 100.464844 C 81.015625 100.996094 80.941406 101.640625 80.769531 102.398438 C 80.546875 103.382812 80.214844 104.167969 79.785156 104.757812 Z M 73.421875 93.066406 L 71.574219 95.597656 L 69.042969 93.75 L 70.890625 91.21875 Z M 73.421875 93.066406 "/>
<path style=" stroke:none;fill-rule:nonzero;fill:rgb(0%,0%,0%);fill-opacity:1;" d="M 79 105.769531 L 78.636719 106.445312 C 78.296875 107.074219 78.074219 107.699219 77.96875 108.324219 C 77.824219 109.207031 78.007812 109.785156 78.511719 110.054688 C 78.929688 110.28125 79.523438 110.125 80.292969 109.585938 C 80.523438 109.421875 81.03125 108.988281 81.816406 108.289062 L 84.085938 110.664062 C 81.355469 113.542969 78.050781 114.527344 74.164062 113.621094 C 74.304688 114.117188 74.167969 114.757812 73.746094 115.542969 L 73.371094 116.242188 L 70.257812 114.570312 L 70.515625 114.089844 C 71.117188 112.972656 70.929688 112.152344 69.949219 111.625 L 66.28125 109.652344 L 67.765625 106.890625 L 73.054688 109.734375 C 74.039062 110.265625 74.894531 110.5625 75.617188 110.632812 C 75.046875 109.855469 74.730469 108.972656 74.671875 107.992188 C 74.613281 107.011719 74.816406 106.089844 75.28125 105.226562 L 75.886719 104.097656 Z M 79 105.769531 "/>
<path style=" stroke:none;fill-rule:nonzero;fill:rgb(0%,0%,0%);fill-opacity:1;" d="M 73.75 115.601562 L 72.753906 118.152344 C 72.246094 119.449219 71.289062 120.203125 69.882812 120.410156 C 68.753906 120.574219 67.488281 120.378906 66.074219 119.828125 L 56.097656 115.925781 L 57.234375 113.019531 L 66.175781 116.515625 C 67.15625 116.898438 67.890625 117.0625 68.382812 117.011719 C 69.09375 116.9375 69.621094 116.460938 69.964844 115.585938 L 70.460938 114.316406 Z M 73.75 115.601562 "/>
<path style=" stroke:none;fill-rule:nonzero;fill:rgb(0%,0%,0%);fill-opacity:1;" d="M 66.65625 123.140625 C 68.441406 123.519531 69.996094 124.394531 71.316406 125.765625 C 73.230469 127.75 73.863281 130.269531 73.214844 133.320312 C 72.753906 135.484375 71.679688 137.105469 69.992188 138.179688 C 68.304688 139.253906 66.371094 139.5625 64.199219 139.097656 C 63.59375 138.972656 62.585938 138.570312 61.167969 137.902344 L 62.414062 135.339844 C 63.082031 135.636719 63.832031 135.871094 64.660156 136.046875 C 65.917969 136.3125 67.035156 136.082031 68.011719 135.351562 C 68.933594 134.65625 69.53125 133.671875 69.800781 132.394531 C 70.128906 130.851562 69.9375 129.507812 69.230469 128.363281 C 68.523438 127.222656 67.402344 126.488281 65.867188 126.164062 C 64.917969 125.960938 63.453125 126.085938 61.472656 126.542969 L 60.316406 123.523438 C 62.109375 122.75 64.222656 122.625 66.65625 123.140625 Z M 61.648438 129.660156 L 61 132.714844 L 57.945312 132.066406 L 58.59375 129.011719 Z M 61.648438 129.660156 "/>
</g>
</svg>
