<?xml version="1.0" standalone="no"?>
<!DOCTYPE svg PUBLIC "-//W3C//DTD SVG 1.0//EN" "http://www.w3.org/TR/2001/REC-SVG-20010904/DTD/svg10.dtd">
<svg xmlns="http://www.w3.org/2000/svg" xmlns:xlink="http://www.w3.org/1999/xlink" id="body_1" width="300" height="300">

<defs>
        <clipPath  id="1">

            <path clip-rule="evenodd" d="M0 0L253 0L253 116L0 116L0 0z" />        </clipPath>
</defs>

<g transform="matrix(1.1857708 0 0 2.586207 0 0)">
	<g transform="matrix(1 0 0 1 0 0)" clip-path="url(#1)" >
		<g transform="matrix(1 0 0 1 -70 -259)">
            <path d="M450.5 115L471.5 115C 472.8807 115 474 116.119286 474 117.5L474 117.5L474 138.5C 474 139.8807 472.8807 141 471.5 141L471.5 141L450.5 141C 449.1193 141 448 139.8807 448 138.5L448 138.5L448 117.5C 448 116.119286 449.1193 115 450.5 115z" stroke="none" fill="#000000" fill-rule="nonzero" />
            <path d="M450.5 115L471.5 115C 472.8807 115 474 116.119286 474 117.5L474 117.5L474 138.5C 474 139.8807 472.8807 141 471.5 141L471.5 141L450.5 141C 449.1193 141 448 139.8807 448 138.5L448 138.5L448 117.5C 448 116.119286 449.1193 115 450.5 115z" stroke="#000000" stroke-width="1" stroke-linecap="square" fill="none" />
            <path d="M453 130L458 135L453 130z" stroke="#444444" stroke-width="4" stroke-linecap="square" fill="none" />
            <path d="M458 135L468 121L458 135z" stroke="#444444" stroke-width="4" stroke-linecap="square" fill="none" />
			<text transform="matrix(1 0 0 1 0 0)" x="483" y="140" style="fill:#000000;font-family:ABeeZee;" font-size="32">
Serif
			</text>
			<g transform="matrix(35 0 0 35 0 0)">
				<g transform="matrix(1 0 0 1 2.2857144 8.268714)">
                    <path d="M0.334 -0.302L0.3 -0.165C 0.28866667 -0.11966668 0.283 -0.09033334 0.283 -0.077C 0.283 -0.042333335 0.29533333 -0.021333335 0.32 -0.014C 0.32533336 -0.012 0.33133334 -0.011 0.338 -0.011C 0.37133336 -0.011 0.4016667 -0.02766667 0.429 -0.061C 0.44700003 -0.08233334 0.46100003 -0.10933334 0.471 -0.142C 0.47300002 -0.14933333 0.47733337 -0.153 0.484 -0.153C 0.49199998 -0.153 0.496 -0.14966667 0.496 -0.143C 0.496 -0.12633334 0.48566666 -0.10233334 0.465 -0.071C 0.42900002 -0.016333334 0.38600004 0.011 0.336 0.011C 0.2906667 0.011 0.25766668 -0.008 0.237 -0.046C 0.23300001 -0.052 0.23000002 -0.058333337 0.228 -0.065C 0.21200001 -0.033 0.19000001 -0.0106666675 0.162 0.002C 0.14933334 0.008 0.13633335 0.011 0.123 0.011C 0.083000004 0.011 0.055000003 -0.0006666668 0.039 -0.024C 0.032333333 -0.03266667 0.029 -0.043 0.029 -0.055C 0.029 -0.079666674 0.039666668 -0.097 0.061 -0.107C 0.068333335 -0.111 0.076000005 -0.113000005 0.084 -0.113C 0.104 -0.113000005 0.116000004 -0.104666665 0.12 -0.088C 0.12066667 -0.08466667 0.12100001 -0.08133333 0.121 -0.078C 0.12100001 -0.055333335 0.10966667 -0.03866667 0.087 -0.028C 0.083000004 -0.026 0.07866667 -0.024666667 0.074 -0.024C 0.088 -0.015333334 0.104666665 -0.011 0.124 -0.011C 0.15933333 -0.011 0.18733335 -0.03466667 0.208 -0.082C 0.21200001 -0.09200001 0.21566667 -0.10300001 0.219 -0.115C 0.255 -0.25100002 0.273 -0.33033335 0.273 -0.353C 0.269 -0.39433333 0.251 -0.4166667 0.219 -0.42C 0.18433332 -0.42000002 0.15266666 -0.40233335 0.124 -0.367L0.124 -0.367L0.124 -0.366C 0.124 -0.36533335 0.12366667 -0.365 0.123 -0.365C 0.113000005 -0.3516667 0.104 -0.33633333 0.096 -0.319C 0.09266667 -0.31100002 0.089666665 -0.303 0.087 -0.295L0.087 -0.295L0.085 -0.289C 0.08366667 -0.2816667 0.079333335 -0.278 0.072 -0.278C 0.063999996 -0.278 0.06 -0.28133333 0.06 -0.288C 0.06 -0.30466667 0.07066667 -0.3286667 0.092 -0.36C 0.128 -0.41466668 0.171 -0.44200003 0.221 -0.442C 0.27233335 -0.44200003 0.30833334 -0.4166667 0.329 -0.366C 0.35033333 -0.40733334 0.3786667 -0.432 0.414 -0.44C 0.4206667 -0.44133335 0.42733335 -0.44200003 0.434 -0.442C 0.47333336 -0.44200003 0.50100005 -0.43100002 0.517 -0.409C 0.5236667 -0.3996667 0.527 -0.3886667 0.527 -0.376C 0.527 -0.34866667 0.5146667 -0.33033335 0.49 -0.321C 0.48400003 -0.319 0.47833335 -0.318 0.473 -0.318C 0.45233333 -0.318 0.44 -0.327 0.436 -0.345C 0.43533337 -0.34766668 0.43500003 -0.35033333 0.435 -0.353C 0.43500003 -0.373 0.44466668 -0.3886667 0.464 -0.4C 0.47 -0.40333337 0.47633335 -0.40566668 0.483 -0.407C 0.46900004 -0.41566667 0.45233336 -0.42000002 0.433 -0.42C 0.38766667 -0.42000002 0.3556667 -0.38466668 0.337 -0.314C 0.3356667 -0.31 0.33466667 -0.306 0.334 -0.302z" stroke="none" fill="#000000" fill-rule="nonzero" />
				</g>
				<g transform="matrix(0.7 0 0 0.7 2.8577142 8.418715)">
                    <path d="M0.206 -0.4L0.132 -0.105C 0.128 -0.08833334 0.12600002 -0.072333336 0.126 -0.057C 0.12600002 -0.026333336 0.13633335 -0.011 0.157 -0.011C 0.20100002 -0.011 0.23966669 -0.043333337 0.273 -0.108L0.273 -0.108L0.287 -0.139C 0.291 -0.14766666 0.296 -0.15233333 0.302 -0.153C 0.31 -0.153 0.314 -0.14966667 0.314 -0.143C 0.314 -0.13433334 0.30533335 -0.11533333 0.288 -0.086C 0.24933334 -0.021333333 0.20500001 0.011 0.155 0.011C 0.11633334 0.011 0.08900001 -0.005 0.073 -0.037C 0.06633334 -0.050333336 0.06300001 -0.065000005 0.063 -0.081C 0.06300001 -0.09366667 0.083333336 -0.18 0.124 -0.34L0.124 -0.34L0.139 -0.4L0.051 -0.4C 0.034333333 -0.40000004 0.025333334 -0.4026667 0.024 -0.408L0.024 -0.408L0.023 -0.408L0.023 -0.412C 0.023000002 -0.42333335 0.028333334 -0.4296667 0.039 -0.431L0.039 -0.431L0.053 -0.431L0.147 -0.431L0.186 -0.59C 0.192 -0.61333334 0.20533332 -0.62533337 0.226 -0.626C 0.24333334 -0.626 0.25300002 -0.617 0.255 -0.599C 0.255 -0.595 0.24133334 -0.53900003 0.214 -0.431L0.214 -0.431L0.302 -0.431C 0.31933334 -0.431 0.3286667 -0.42733335 0.33 -0.42C 0.33 -0.408 0.32466668 -0.40133333 0.314 -0.4L0.314 -0.4L0.313 -0.4L0.3 -0.4L0.206 -0.4z" stroke="none" fill="#000000" fill-rule="nonzero" />
				</g>
				<g transform="matrix(0.7 0 0 0.7 3.1104143 8.418715)">
                    <path d="M0.409 -0.23L0.409 0.05C 0.40900004 0.071333334 0.40233338 0.082333334 0.389 0.083C 0.37566668 0.083 0.369 0.072 0.369 0.05L0.369 0.05L0.369 -0.23L0.089 -0.23C 0.06766667 -0.23 0.056666672 -0.23666668 0.056 -0.25C 0.056 -0.26333335 0.067 -0.27 0.089 -0.27L0.089 -0.27L0.369 -0.27L0.369 -0.55C 0.369 -0.57133335 0.37566668 -0.5823333 0.389 -0.583C 0.40233338 -0.58300006 0.40900004 -0.572 0.409 -0.55L0.409 -0.55L0.409 -0.27L0.688 -0.27C 0.70933336 -0.27 0.72033334 -0.26333335 0.721 -0.25C 0.7210001 -0.23666668 0.71000004 -0.23 0.688 -0.23L0.688 -0.23L0.409 -0.23z" stroke="none" fill="#000000" fill-rule="nonzero" />
				</g>
				<g transform="matrix(0.7 0 0 0.7 3.6550143 8.418715)">
                    <path d="M0.294 -0.64L0.294 -0.079C 0.29400003 -0.059000004 0.298 -0.046333335 0.306 -0.041C 0.31733334 -0.034333333 0.34433335 -0.031 0.387 -0.031L0.387 -0.031L0.419 -0.031L0.419 0C 0.3956667 -0.002 0.3416667 -0.003 0.257 -0.003C 0.17233333 -0.003 0.11833333 -0.002 0.095 0L0.095 0L0.095 -0.031L0.127 -0.031C 0.17833334 -0.031 0.20766668 -0.037 0.215 -0.049L0.215 -0.049L0.216 -0.05C 0.21866667 -0.05533333 0.22000001 -0.065 0.22 -0.079L0.22 -0.079L0.22 -0.597C 0.18533334 -0.5796667 0.14166667 -0.571 0.089 -0.571L0.089 -0.571L0.089 -0.602C 0.169 -0.602 0.22966668 -0.62333333 0.271 -0.666C 0.28366667 -0.666 0.291 -0.66366667 0.293 -0.659L0.293 -0.659L0.293 -0.658C 0.2936667 -0.656 0.29400003 -0.65 0.294 -0.64z" stroke="none" fill="#000000" fill-rule="nonzero" />
				</g>
				<g transform="matrix(1 0 0 1 4.282792 8.268714)">
                    <path d="M0.687 -0.327L0.09 -0.327C 0.06866667 -0.327 0.057333335 -0.33366668 0.056 -0.347C 0.056 -0.36033335 0.067 -0.367 0.089 -0.367L0.089 -0.367L0.688 -0.367C 0.70933336 -0.367 0.72033334 -0.36033335 0.721 -0.347C 0.7210001 -0.33366668 0.7096667 -0.327 0.687 -0.327zM0.688 -0.133L0.089 -0.133C 0.06766667 -0.133 0.056666672 -0.13966668 0.056 -0.153C 0.056 -0.16633333 0.06733334 -0.17300001 0.09 -0.173L0.09 -0.173L0.687 -0.173C 0.7083334 -0.17300001 0.7196667 -0.16633333 0.721 -0.153C 0.7210001 -0.13966668 0.71000004 -0.133 0.688 -0.133z" stroke="none" fill="#000000" fill-rule="nonzero" />
				</g>
				<g transform="matrix(1 0 0 1 5.3385696 8.268714)">
                    <path d="M0.334 -0.302L0.3 -0.165C 0.28866667 -0.11966668 0.283 -0.09033334 0.283 -0.077C 0.283 -0.042333335 0.29533333 -0.021333335 0.32 -0.014C 0.32533336 -0.012 0.33133334 -0.011 0.338 -0.011C 0.37133336 -0.011 0.4016667 -0.02766667 0.429 -0.061C 0.44700003 -0.08233334 0.46100003 -0.10933334 0.471 -0.142C 0.47300002 -0.14933333 0.47733337 -0.153 0.484 -0.153C 0.49199998 -0.153 0.496 -0.14966667 0.496 -0.143C 0.496 -0.12633334 0.48566666 -0.10233334 0.465 -0.071C 0.42900002 -0.016333334 0.38600004 0.011 0.336 0.011C 0.2906667 0.011 0.25766668 -0.008 0.237 -0.046C 0.23300001 -0.052 0.23000002 -0.058333337 0.228 -0.065C 0.21200001 -0.033 0.19000001 -0.0106666675 0.162 0.002C 0.14933334 0.008 0.13633335 0.011 0.123 0.011C 0.083000004 0.011 0.055000003 -0.0006666668 0.039 -0.024C 0.032333333 -0.03266667 0.029 -0.043 0.029 -0.055C 0.029 -0.079666674 0.039666668 -0.097 0.061 -0.107C 0.068333335 -0.111 0.076000005 -0.113000005 0.084 -0.113C 0.104 -0.113000005 0.116000004 -0.104666665 0.12 -0.088C 0.12066667 -0.08466667 0.12100001 -0.08133333 0.121 -0.078C 0.12100001 -0.055333335 0.10966667 -0.03866667 0.087 -0.028C 0.083000004 -0.026 0.07866667 -0.024666667 0.074 -0.024C 0.088 -0.015333334 0.104666665 -0.011 0.124 -0.011C 0.15933333 -0.011 0.18733335 -0.03466667 0.208 -0.082C 0.21200001 -0.09200001 0.21566667 -0.10300001 0.219 -0.115C 0.255 -0.25100002 0.273 -0.33033335 0.273 -0.353C 0.269 -0.39433333 0.251 -0.4166667 0.219 -0.42C 0.18433332 -0.42000002 0.15266666 -0.40233335 0.124 -0.367L0.124 -0.367L0.124 -0.366C 0.124 -0.36533335 0.12366667 -0.365 0.123 -0.365C 0.113000005 -0.3516667 0.104 -0.33633333 0.096 -0.319C 0.09266667 -0.31100002 0.089666665 -0.303 0.087 -0.295L0.087 -0.295L0.085 -0.289C 0.08366667 -0.2816667 0.079333335 -0.278 0.072 -0.278C 0.063999996 -0.278 0.06 -0.28133333 0.06 -0.288C 0.06 -0.30466667 0.07066667 -0.3286667 0.092 -0.36C 0.128 -0.41466668 0.171 -0.44200003 0.221 -0.442C 0.27233335 -0.44200003 0.30833334 -0.4166667 0.329 -0.366C 0.35033333 -0.40733334 0.3786667 -0.432 0.414 -0.44C 0.4206667 -0.44133335 0.42733335 -0.44200003 0.434 -0.442C 0.47333336 -0.44200003 0.50100005 -0.43100002 0.517 -0.409C 0.5236667 -0.3996667 0.527 -0.3886667 0.527 -0.376C 0.527 -0.34866667 0.5146667 -0.33033335 0.49 -0.321C 0.48400003 -0.319 0.47833335 -0.318 0.473 -0.318C 0.45233333 -0.318 0.44 -0.327 0.436 -0.345C 0.43533337 -0.34766668 0.43500003 -0.35033333 0.435 -0.353C 0.43500003 -0.373 0.44466668 -0.3886667 0.464 -0.4C 0.47 -0.40333337 0.47633335 -0.40566668 0.483 -0.407C 0.46900004 -0.41566667 0.45233336 -0.42000002 0.433 -0.42C 0.38766667 -0.42000002 0.3556667 -0.38466668 0.337 -0.314C 0.3356667 -0.31 0.33466667 -0.306 0.334 -0.302z" stroke="none" fill="#000000" fill-rule="nonzero" />
				</g>
				<g transform="matrix(0.7 0 0 0.7 5.9105697 8.418715)">
                    <path d="M0.206 -0.4L0.132 -0.105C 0.128 -0.08833334 0.12600002 -0.072333336 0.126 -0.057C 0.12600002 -0.026333336 0.13633335 -0.011 0.157 -0.011C 0.20100002 -0.011 0.23966669 -0.043333337 0.273 -0.108L0.273 -0.108L0.287 -0.139C 0.291 -0.14766666 0.296 -0.15233333 0.302 -0.153C 0.31 -0.153 0.314 -0.14966667 0.314 -0.143C 0.314 -0.13433334 0.30533335 -0.11533333 0.288 -0.086C 0.24933334 -0.021333333 0.20500001 0.011 0.155 0.011C 0.11633334 0.011 0.08900001 -0.005 0.073 -0.037C 0.06633334 -0.050333336 0.06300001 -0.065000005 0.063 -0.081C 0.06300001 -0.09366667 0.083333336 -0.18 0.124 -0.34L0.124 -0.34L0.139 -0.4L0.051 -0.4C 0.034333333 -0.40000004 0.025333334 -0.4026667 0.024 -0.408L0.024 -0.408L0.023 -0.408L0.023 -0.412C 0.023000002 -0.42333335 0.028333334 -0.4296667 0.039 -0.431L0.039 -0.431L0.053 -0.431L0.147 -0.431L0.186 -0.59C 0.192 -0.61333334 0.20533332 -0.62533337 0.226 -0.626C 0.24333334 -0.626 0.25300002 -0.617 0.255 -0.599C 0.255 -0.595 0.24133334 -0.53900003 0.214 -0.431L0.214 -0.431L0.302 -0.431C 0.31933334 -0.431 0.3286667 -0.42733335 0.33 -0.42C 0.33 -0.408 0.32466668 -0.40133333 0.314 -0.4L0.314 -0.4L0.313 -0.4L0.3 -0.4L0.206 -0.4z" stroke="none" fill="#000000" fill-rule="nonzero" />
				</g>
				<g transform="matrix(1 0 0 1 6.385492 8.268714)">
                    <path d="M0.661 -0.23L0.116 -0.23C 0.09466667 -0.23 0.08366667 -0.23666668 0.083 -0.25C 0.083 -0.26333335 0.094 -0.27 0.116 -0.27L0.116 -0.27L0.661 -0.27C 0.68233335 -0.27 0.6933334 -0.26333335 0.694 -0.25C 0.694 -0.23666668 0.683 -0.23 0.661 -0.23z" stroke="none" fill="#000000" fill-rule="nonzero" />
				</g>
				<g transform="matrix(1 0 0 1 7.385714 8.268714)">
                    <path d="M0.488 -0.277L0.374 0.176C 0.36666667 0.20200002 0.35300002 0.21533334 0.333 0.216C 0.31766668 0.21600002 0.30866668 0.209 0.306 0.195C 0.30533335 0.193 0.305 0.19100001 0.305 0.189C 0.305 0.18633333 0.30600002 0.181 0.308 0.173L0.308 0.173L0.422 -0.287C 0.42866668 -0.31366667 0.43200004 -0.33466667 0.432 -0.35C 0.43200004 -0.39666668 0.41400003 -0.42000002 0.378 -0.42C 0.34600002 -0.42000002 0.314 -0.40833333 0.282 -0.385C 0.25733334 -0.3656667 0.23566668 -0.337 0.217 -0.299L0.217 -0.299L0.214 -0.293C 0.21133333 -0.277 0.20766667 -0.262 0.203 -0.248C 0.19966666 -0.23266667 0.194 -0.21033335 0.186 -0.181L0.186 -0.181L0.164 -0.091C 0.15266667 -0.045 0.14633334 -0.020333335 0.145 -0.017C 0.139 0.00033333292 0.12666668 0.009666666 0.108 0.011C 0.09133333 0.007666667 0.08166666 -0.0013333336 0.079 -0.016C 0.07900001 -0.014666667 0.082 -0.029000003 0.088 -0.059L0.088 -0.059L0.146 -0.29C 0.15666667 -0.33266667 0.162 -0.3606667 0.162 -0.374C 0.162 -0.40466666 0.15166667 -0.42000002 0.131 -0.42C 0.10366667 -0.42000002 0.08133334 -0.38833332 0.064 -0.325C 0.062000006 -0.31766668 0.060000002 -0.3096667 0.058 -0.301C 0.050666668 -0.28633335 0.045 -0.27866668 0.041 -0.278C 0.033 -0.278 0.029 -0.28133333 0.029 -0.288C 0.029 -0.29866666 0.035 -0.321 0.047 -0.355C 0.05166667 -0.367 0.056 -0.377 0.06 -0.385C 0.076000005 -0.41766667 0.096 -0.43633336 0.12 -0.441C 0.12466667 -0.4416667 0.12933335 -0.44200003 0.134 -0.442C 0.17000002 -0.44200003 0.19666667 -0.42700002 0.214 -0.397C 0.22066668 -0.38433334 0.22466668 -0.37033334 0.226 -0.355C 0.26000002 -0.40433335 0.30333334 -0.4326667 0.356 -0.44C 0.36400002 -0.44133335 0.37233335 -0.44200003 0.381 -0.442C 0.44033334 -0.44200003 0.477 -0.41900003 0.491 -0.373L0.491 -0.373L0.491 -0.372C 0.49433333 -0.36066666 0.496 -0.34833333 0.496 -0.335C 0.496 -0.31566668 0.49333334 -0.29633334 0.488 -0.277z" stroke="none" fill="#000000" fill-rule="nonzero" />
				</g>
				<g transform="matrix(0.7 0 0 0.7 7.8827143 8.497714)">
                    <path d="M0.206 -0.4L0.132 -0.105C 0.128 -0.08833334 0.12600002 -0.072333336 0.126 -0.057C 0.12600002 -0.026333336 0.13633335 -0.011 0.157 -0.011C 0.20100002 -0.011 0.23966669 -0.043333337 0.273 -0.108L0.273 -0.108L0.287 -0.139C 0.291 -0.14766666 0.296 -0.15233333 0.302 -0.153C 0.31 -0.153 0.314 -0.14966667 0.314 -0.143C 0.314 -0.13433334 0.30533335 -0.11533333 0.288 -0.086C 0.24933334 -0.021333333 0.20500001 0.011 0.155 0.011C 0.11633334 0.011 0.08900001 -0.005 0.073 -0.037C 0.06633334 -0.050333336 0.06300001 -0.065000005 0.063 -0.081C 0.06300001 -0.09366667 0.083333336 -0.18 0.124 -0.34L0.124 -0.34L0.139 -0.4L0.051 -0.4C 0.034333333 -0.40000004 0.025333334 -0.4026667 0.024 -0.408L0.024 -0.408L0.023 -0.408L0.023 -0.412C 0.023000002 -0.42333335 0.028333334 -0.4296667 0.039 -0.431L0.039 -0.431L0.053 -0.431L0.147 -0.431L0.186 -0.59C 0.192 -0.61333334 0.20533332 -0.62533337 0.226 -0.626C 0.24333334 -0.626 0.25300002 -0.617 0.255 -0.599C 0.255 -0.595 0.24133334 -0.53900003 0.214 -0.431L0.214 -0.431L0.302 -0.431C 0.31933334 -0.431 0.3286667 -0.42733335 0.33 -0.42C 0.33 -0.408 0.32466668 -0.40133333 0.314 -0.4L0.314 -0.4L0.313 -0.4L0.3 -0.4L0.206 -0.4z" stroke="none" fill="#000000" fill-rule="nonzero" />
				</g>
				<g transform="matrix(1 0 0 1 8.135414 8.268714)">
                    <path d="M0.471 -0.377L0.36 0.067C 0.35000002 0.10700001 0.324 0.14066666 0.282 0.168C 0.24333334 0.19266668 0.19866668 0.20500001 0.148 0.205C 0.066 0.20500001 0.022000002 0.18833333 0.016 0.155C 0.015333334 0.15166667 0.015 0.148 0.015 0.144C 0.015 0.11666667 0.027333334 0.09833334 0.052 0.089C 0.058000006 0.087000005 0.06366667 0.086 0.069 0.086C 0.08966667 0.086 0.102000006 0.095 0.106 0.113C 0.10666667 0.11566667 0.107 0.11833334 0.107 0.121C 0.107 0.14233333 0.097 0.15833333 0.077 0.169C 0.07366667 0.17033334 0.07 0.17166668 0.066 0.173C 0.08666667 0.17966667 0.113333344 0.183 0.146 0.183C 0.21133335 0.183 0.25933334 0.147 0.29 0.075L0.29 0.075L0.323 -0.057L0.322 -0.058C 0.292 -0.024666667 0.25833336 -0.005666667 0.221 -0.001C 0.21566668 -0.00033333336 0.21066667 0 0.206 0C 0.15933335 0 0.12333334 -0.020333335 0.098 -0.061C 0.08133334 -0.08833334 0.073 -0.120666675 0.073 -0.158C 0.073 -0.22933334 0.09833334 -0.29466665 0.149 -0.354C 0.19566667 -0.40866667 0.246 -0.43800002 0.3 -0.442L0.3 -0.442L0.311 -0.442C 0.347 -0.44200003 0.37600002 -0.425 0.398 -0.391L0.398 -0.391L0.404 -0.379C 0.41000003 -0.40433335 0.4236667 -0.41866666 0.445 -0.422C 0.46233335 -0.422 0.472 -0.413 0.474 -0.395L0.474 -0.395L0.471 -0.377zM0.341 -0.128L0.389 -0.319C 0.39100003 -0.32700002 0.39200002 -0.33200002 0.392 -0.334C 0.39200002 -0.34733334 0.38633335 -0.36333334 0.375 -0.382C 0.367 -0.39533335 0.35700002 -0.40533334 0.345 -0.412C 0.335 -0.41733333 0.324 -0.42000002 0.312 -0.42C 0.27733332 -0.42000002 0.24433333 -0.39766666 0.213 -0.353C 0.20833334 -0.34566668 0.204 -0.33833337 0.2 -0.331C 0.17866668 -0.291 0.16166668 -0.23533334 0.149 -0.164C 0.14566667 -0.14333335 0.144 -0.12666667 0.144 -0.114C 0.144 -0.07000001 0.15666667 -0.041333336 0.182 -0.028C 0.18933333 -0.024 0.19833334 -0.022 0.209 -0.022C 0.235 -0.022 0.262 -0.034 0.29 -0.058C 0.3193333 -0.083333336 0.33633333 -0.10666667 0.341 -0.128z" stroke="none" fill="#000000" fill-rule="nonzero" />
				</g>
				<g transform="matrix(0.7 0 0 0.7 8.612414 8.418715)">
                    <path d="M0.206 -0.4L0.132 -0.105C 0.128 -0.08833334 0.12600002 -0.072333336 0.126 -0.057C 0.12600002 -0.026333336 0.13633335 -0.011 0.157 -0.011C 0.20100002 -0.011 0.23966669 -0.043333337 0.273 -0.108L0.273 -0.108L0.287 -0.139C 0.291 -0.14766666 0.296 -0.15233333 0.302 -0.153C 0.31 -0.153 0.314 -0.14966667 0.314 -0.143C 0.314 -0.13433334 0.30533335 -0.11533333 0.288 -0.086C 0.24933334 -0.021333333 0.20500001 0.011 0.155 0.011C 0.11633334 0.011 0.08900001 -0.005 0.073 -0.037C 0.06633334 -0.050333336 0.06300001 -0.065000005 0.063 -0.081C 0.06300001 -0.09366667 0.083333336 -0.18 0.124 -0.34L0.124 -0.34L0.139 -0.4L0.051 -0.4C 0.034333333 -0.40000004 0.025333334 -0.4026667 0.024 -0.408L0.024 -0.408L0.023 -0.408L0.023 -0.412C 0.023000002 -0.42333335 0.028333334 -0.4296667 0.039 -0.431L0.039 -0.431L0.053 -0.431L0.147 -0.431L0.186 -0.59C 0.192 -0.61333334 0.20533332 -0.62533337 0.226 -0.626C 0.24333334 -0.626 0.25300002 -0.617 0.255 -0.599C 0.255 -0.595 0.24133334 -0.53900003 0.214 -0.431L0.214 -0.431L0.302 -0.431C 0.31933334 -0.431 0.3286667 -0.42733335 0.33 -0.42C 0.33 -0.408 0.32466668 -0.40133333 0.314 -0.4L0.314 -0.4L0.313 -0.4L0.3 -0.4L0.206 -0.4z" stroke="none" fill="#000000" fill-rule="nonzero" />
				</g>
				<g transform="matrix(1 0 0 1 2.2857144 9.678715)">
                    <path d="M0.259 -0.336L0.259 -0.102C 0.259 -0.062000003 0.26733333 -0.04 0.284 -0.036C 0.28733337 -0.035333335 0.29333335 -0.035 0.302 -0.035L0.302 -0.035L0.357 -0.035C 0.41233337 -0.035 0.46500003 -0.05 0.515 -0.08C 0.563 -0.10866667 0.5923333 -0.14366667 0.603 -0.185L0.603 -0.185L0.603 -0.186C 0.60300004 -0.18733335 0.60333335 -0.18900001 0.604 -0.191C 0.604 -0.19633335 0.6073333 -0.20033334 0.614 -0.203C 0.6166667 -0.20433334 0.6193333 -0.20500001 0.622 -0.205C 0.63133335 -0.20500001 0.63699996 -0.199 0.639 -0.187L0.639 -0.187L0.61 -0.014C 0.6026667 -0.004666667 0.592 0 0.578 0L0.578 0L0.048 0C 0.028 0 0.017 -0.004 0.015 -0.012C 0.014333334 -0.014 0.014 -0.015999999 0.014 -0.018C 0.014 -0.029333334 0.024666667 -0.035 0.046 -0.035C 0.075333335 -0.035 0.09233334 -0.040333334 0.097 -0.051C 0.10033334 -0.057 0.102000006 -0.067 0.102 -0.081L0.102 -0.081L0.102 -0.082L0.102 -0.092L0.102 -0.593C 0.102000006 -0.6203333 0.098000005 -0.63666666 0.09 -0.642L0.09 -0.642L0.089 -0.643C 0.08166667 -0.6476667 0.06566667 -0.65 0.041 -0.65C 0.023000002 -0.65 0.014 -0.6556667 0.014 -0.667C 0.019333335 -0.6783334 0.030666668 -0.6843334 0.048 -0.685L0.048 -0.685L0.56 -0.685C 0.578 -0.685 0.588 -0.68233335 0.59 -0.677L0.59 -0.677L0.591 -0.676C 0.5923334 -0.67200005 0.59300005 -0.66400003 0.593 -0.652L0.593 -0.652L0.593 -0.522C 0.59033334 -0.50200003 0.58466667 -0.491 0.576 -0.489C 0.566 -0.48900002 0.56000006 -0.49666667 0.558 -0.512C 0.554 -0.558 0.5286667 -0.594 0.482 -0.62C 0.446 -0.64 0.402 -0.65 0.35 -0.65L0.35 -0.65L0.302 -0.65C 0.284 -0.65 0.27233332 -0.64533335 0.267 -0.636C 0.26166666 -0.62533337 0.259 -0.60766673 0.259 -0.583L0.259 -0.583L0.259 -0.372C 0.3356667 -0.37333336 0.38466668 -0.39833337 0.406 -0.447C 0.41333333 -0.46433336 0.41766667 -0.485 0.419 -0.509C 0.41900003 -0.52433336 0.425 -0.532 0.437 -0.532C 0.44833332 -0.52933335 0.454 -0.5186667 0.454 -0.5L0.454 -0.5L0.454 -0.229C 0.454 -0.21033335 0.45066667 -0.2 0.444 -0.198C 0.44200003 -0.19733334 0.4396667 -0.197 0.437 -0.197C 0.42633337 -0.197 0.42033336 -0.204 0.419 -0.218L0.419 -0.218L0.419 -0.224C 0.41900003 -0.24866667 0.41000003 -0.27166668 0.392 -0.293L0.392 -0.293L0.391 -0.294L0.379 -0.306C 0.375 -0.30933332 0.37100002 -0.31233335 0.367 -0.315C 0.34366667 -0.329 0.30766666 -0.33600003 0.259 -0.336zM0.558 -0.65L0.501 -0.65C 0.52166665 -0.63666666 0.5406667 -0.6206667 0.558 -0.602L0.558 -0.602L0.558 -0.65zM0.363 -0.357L0.363 -0.356C 0.36833334 -0.356 0.37933332 -0.34966668 0.396 -0.337C 0.4046667 -0.33033335 0.41233337 -0.32333332 0.419 -0.316L0.419 -0.316L0.419 -0.4C 0.40233335 -0.38 0.3836667 -0.3656667 0.363 -0.357zM0.137 -0.595L0.137 -0.09C 0.137 -0.06533334 0.13433333 -0.047000002 0.129 -0.035L0.129 -0.035L0.235 -0.035C 0.22766668 -0.051666666 0.224 -0.07333334 0.224 -0.1L0.224 -0.1L0.224 -0.585C 0.224 -0.613 0.22766668 -0.6346667 0.235 -0.65L0.235 -0.65L0.129 -0.65C 0.13433333 -0.638 0.137 -0.6196667 0.137 -0.595zM0.509 -0.035L0.579 -0.035C 0.5823333 -0.06166667 0.58533335 -0.08033334 0.588 -0.091C 0.56200004 -0.067666665 0.5356667 -0.049333334 0.509 -0.036L0.509 -0.036L0.509 -0.035z" stroke="none" fill="#000000" fill-rule="nonzero" />
				</g>
				<g transform="matrix(1 0 0 1 2.9527142 9.678715)">
                    <path d="M0.255 0.25L0.118 0.25L0.118 -0.75L0.255 -0.75L0.255 -0.71L0.158 -0.71L0.158 0.21L0.255 0.21L0.255 0.25z" stroke="none" fill="#000000" fill-rule="nonzero" />
				</g>
				<g transform="matrix(1 0 0 1 3.2307143 9.678715)">
                    <path d="M0.471 -0.377L0.36 0.067C 0.35000002 0.10700001 0.324 0.14066666 0.282 0.168C 0.24333334 0.19266668 0.19866668 0.20500001 0.148 0.205C 0.066 0.20500001 0.022000002 0.18833333 0.016 0.155C 0.015333334 0.15166667 0.015 0.148 0.015 0.144C 0.015 0.11666667 0.027333334 0.09833334 0.052 0.089C 0.058000006 0.087000005 0.06366667 0.086 0.069 0.086C 0.08966667 0.086 0.102000006 0.095 0.106 0.113C 0.10666667 0.11566667 0.107 0.11833334 0.107 0.121C 0.107 0.14233333 0.097 0.15833333 0.077 0.169C 0.07366667 0.17033334 0.07 0.17166668 0.066 0.173C 0.08666667 0.17966667 0.113333344 0.183 0.146 0.183C 0.21133335 0.183 0.25933334 0.147 0.29 0.075L0.29 0.075L0.323 -0.057L0.322 -0.058C 0.292 -0.024666667 0.25833336 -0.005666667 0.221 -0.001C 0.21566668 -0.00033333336 0.21066667 0 0.206 0C 0.15933335 0 0.12333334 -0.020333335 0.098 -0.061C 0.08133334 -0.08833334 0.073 -0.120666675 0.073 -0.158C 0.073 -0.22933334 0.09833334 -0.29466665 0.149 -0.354C 0.19566667 -0.40866667 0.246 -0.43800002 0.3 -0.442L0.3 -0.442L0.311 -0.442C 0.347 -0.44200003 0.37600002 -0.425 0.398 -0.391L0.398 -0.391L0.404 -0.379C 0.41000003 -0.40433335 0.4236667 -0.41866666 0.445 -0.422C 0.46233335 -0.422 0.472 -0.413 0.474 -0.395L0.474 -0.395L0.471 -0.377zM0.341 -0.128L0.389 -0.319C 0.39100003 -0.32700002 0.39200002 -0.33200002 0.392 -0.334C 0.39200002 -0.34733334 0.38633335 -0.36333334 0.375 -0.382C 0.367 -0.39533335 0.35700002 -0.40533334 0.345 -0.412C 0.335 -0.41733333 0.324 -0.42000002 0.312 -0.42C 0.27733332 -0.42000002 0.24433333 -0.39766666 0.213 -0.353C 0.20833334 -0.34566668 0.204 -0.33833337 0.2 -0.331C 0.17866668 -0.291 0.16166668 -0.23533334 0.149 -0.164C 0.14566667 -0.14333335 0.144 -0.12666667 0.144 -0.114C 0.144 -0.07000001 0.15666667 -0.041333336 0.182 -0.028C 0.18933333 -0.024 0.19833334 -0.022 0.209 -0.022C 0.235 -0.022 0.262 -0.034 0.29 -0.058C 0.3193333 -0.083333336 0.33633333 -0.10666667 0.341 -0.128z" stroke="none" fill="#000000" fill-rule="nonzero" />
				</g>
				<g transform="matrix(0.7 0 0 0.7 3.7077143 9.828714)">
                    <path d="M0.206 -0.4L0.132 -0.105C 0.128 -0.08833334 0.12600002 -0.072333336 0.126 -0.057C 0.12600002 -0.026333336 0.13633335 -0.011 0.157 -0.011C 0.20100002 -0.011 0.23966669 -0.043333337 0.273 -0.108L0.273 -0.108L0.287 -0.139C 0.291 -0.14766666 0.296 -0.15233333 0.302 -0.153C 0.31 -0.153 0.314 -0.14966667 0.314 -0.143C 0.314 -0.13433334 0.30533335 -0.11533333 0.288 -0.086C 0.24933334 -0.021333333 0.20500001 0.011 0.155 0.011C 0.11633334 0.011 0.08900001 -0.005 0.073 -0.037C 0.06633334 -0.050333336 0.06300001 -0.065000005 0.063 -0.081C 0.06300001 -0.09366667 0.083333336 -0.18 0.124 -0.34L0.124 -0.34L0.139 -0.4L0.051 -0.4C 0.034333333 -0.40000004 0.025333334 -0.4026667 0.024 -0.408L0.024 -0.408L0.023 -0.408L0.023 -0.412C 0.023000002 -0.42333335 0.028333334 -0.4296667 0.039 -0.431L0.039 -0.431L0.053 -0.431L0.147 -0.431L0.186 -0.59C 0.192 -0.61333334 0.20533332 -0.62533337 0.226 -0.626C 0.24333334 -0.626 0.25300002 -0.617 0.255 -0.599C 0.255 -0.595 0.24133334 -0.53900003 0.214 -0.431L0.214 -0.431L0.302 -0.431C 0.31933334 -0.431 0.3286667 -0.42733335 0.33 -0.42C 0.33 -0.408 0.32466668 -0.40133333 0.314 -0.4L0.314 -0.4L0.313 -0.4L0.3 -0.4L0.206 -0.4z" stroke="none" fill="#000000" fill-rule="nonzero" />
				</g>
				<g transform="matrix(1 0 0 1 3.9604142 9.678715)">
                    <path d="M0.159 -0.75L0.159 0.25L0.022 0.25L0.022 0.21L0.119 0.21L0.119 -0.71L0.022 -0.71L0.022 -0.75L0.159 -0.75z" stroke="none" fill="#000000" fill-rule="nonzero" />
				</g>
				<g transform="matrix(1 0 0 1 4.516192 9.678715)">
                    <path d="M0.687 -0.327L0.09 -0.327C 0.06866667 -0.327 0.057333335 -0.33366668 0.056 -0.347C 0.056 -0.36033335 0.067 -0.367 0.089 -0.367L0.089 -0.367L0.688 -0.367C 0.70933336 -0.367 0.72033334 -0.36033335 0.721 -0.347C 0.7210001 -0.33366668 0.7096667 -0.327 0.687 -0.327zM0.688 -0.133L0.089 -0.133C 0.06766667 -0.133 0.056666672 -0.13966668 0.056 -0.153C 0.056 -0.16633333 0.06733334 -0.17300001 0.09 -0.173L0.09 -0.173L0.687 -0.173C 0.7083334 -0.17300001 0.7196667 -0.16633333 0.721 -0.153C 0.7210001 -0.13966668 0.71000004 -0.133 0.688 -0.133z" stroke="none" fill="#000000" fill-rule="nonzero" />
				</g>
				<g transform="matrix(1 0 0 1 5.57197 9.678715)">
                    <path d="M0.78 -0.663L0.442 0.015C 0.43666667 0.024999999 0.43133336 0.030666668 0.426 0.032C 0.42333335 0.03266667 0.42000002 0.033 0.416 0.033C 0.40533334 0.033 0.398 0.029333334 0.394 0.022C 0.39333338 0.020666666 0.39200002 0.018333334 0.39 0.015L0.39 0.015L0.052 -0.663C 0.04866667 -0.669 0.047000002 -0.67300004 0.047 -0.675C 0.051000003 -0.6803334 0.058333337 -0.683 0.069 -0.683L0.069 -0.683L0.763 -0.683C 0.77700007 -0.683 0.78433335 -0.6803334 0.785 -0.675C 0.7850001 -0.67300004 0.78333336 -0.669 0.78 -0.663zM0.17 -0.612L0.445 -0.061L0.446 -0.061L0.72 -0.612L0.17 -0.612z" stroke="none" fill="#000000" fill-rule="nonzero" />
				</g>
				<g transform="matrix(1 0 0 1 6.4049697 9.678715)">
                    <path d="M0.367 -0.4L0.307 -0.083C 0.301 -0.041666664 0.289 0.0056666676 0.271 0.059C 0.26433334 0.07833333 0.25766668 0.094666675 0.251 0.108C 0.22766668 0.15733333 0.19866668 0.188 0.164 0.2C 0.15533334 0.20333335 0.14666666 0.20500001 0.138 0.205C 0.104666665 0.20500001 0.080000006 0.19366667 0.064 0.171C 0.056666672 0.16100001 0.053000003 0.14933334 0.053 0.136C 0.053000003 0.10933334 0.064333335 0.091000006 0.087 0.081C 0.09366667 0.07766667 0.10066667 0.076000005 0.108 0.076C 0.12733333 0.076000005 0.13933334 0.08433334 0.144 0.101C 0.14466667 0.10433334 0.145 0.10766667 0.145 0.111C 0.145 0.13366666 0.13499999 0.14966667 0.115 0.159C 0.10766667 0.16233334 0.09933334 0.16433334 0.09 0.165C 0.10266667 0.177 0.118666664 0.183 0.138 0.183C 0.16733333 0.183 0.19033334 0.15033333 0.207 0.085C 0.21033335 0.06966667 0.21433334 0.049666665 0.219 0.025L0.219 0.025L0.225 -0.005L0.3 -0.4L0.234 -0.4C 0.21733335 -0.40000004 0.20833334 -0.4026667 0.207 -0.408L0.207 -0.408L0.206 -0.408L0.206 -0.412C 0.206 -0.42333335 0.21166667 -0.4296667 0.223 -0.431L0.223 -0.431L0.236 -0.431L0.305 -0.431C 0.321 -0.51433337 0.33200002 -0.5666667 0.338 -0.588C 0.358 -0.65466666 0.39333335 -0.693 0.444 -0.703C 0.45133334 -0.7043333 0.45833334 -0.705 0.465 -0.705C 0.4996667 -0.705 0.52500004 -0.6936667 0.541 -0.671C 0.54833335 -0.661 0.552 -0.64933336 0.552 -0.636C 0.552 -0.60933334 0.5406667 -0.591 0.518 -0.581C 0.51133335 -0.57766664 0.5043334 -0.576 0.497 -0.576C 0.47766668 -0.576 0.46566668 -0.58433336 0.461 -0.601C 0.46033335 -0.60433334 0.46 -0.6076667 0.46 -0.611C 0.46 -0.6316667 0.46933335 -0.6470001 0.488 -0.657C 0.49533337 -0.66166663 0.50400007 -0.66433334 0.514 -0.665C 0.50133336 -0.67700005 0.485 -0.683 0.465 -0.683C 0.44433334 -0.683 0.42866668 -0.6716667 0.418 -0.649C 0.41333336 -0.6396667 0.40533334 -0.605 0.394 -0.545L0.394 -0.545L0.373 -0.431L0.456 -0.431C 0.47266668 -0.431 0.48166668 -0.42733335 0.483 -0.42C 0.48300004 -0.408 0.4776667 -0.40133333 0.467 -0.4L0.467 -0.4L0.466 -0.4L0.453 -0.4L0.367 -0.4z" stroke="none" fill="#000000" fill-rule="nonzero" />
				</g>
				<g transform="matrix(1 0 0 1 7.0029697 9.678715)">
                    <path d="M0.331 0.24C 0.33100003 0.24666667 0.3276667 0.25 0.321 0.25C 0.31300002 0.25 0.29533333 0.23633334 0.268 0.209C 0.22666667 0.16766667 0.19233334 0.11866667 0.165 0.062C 0.12100001 -0.028666668 0.099 -0.13266668 0.099 -0.25C 0.099 -0.3626667 0.120000005 -0.46433336 0.162 -0.555C 0.19666667 -0.629 0.24066667 -0.68833333 0.294 -0.733C 0.30800003 -0.7443333 0.31700003 -0.75 0.321 -0.75C 0.3276667 -0.75 0.33100003 -0.74666667 0.331 -0.74C 0.33100003 -0.7366667 0.32666668 -0.731 0.318 -0.723C 0.21066667 -0.61366665 0.157 -0.45600003 0.157 -0.25C 0.157 -0.04466667 0.20933335 0.11133333 0.314 0.218C 0.32533336 0.22933334 0.33100003 0.23666666 0.331 0.24z" stroke="none" fill="#000000" fill-rule="nonzero" />
				</g>
				<g transform="matrix(1 0 0 1 7.3919697 9.678715)">
                    <path d="M0.334 -0.302L0.3 -0.165C 0.28866667 -0.11966668 0.283 -0.09033334 0.283 -0.077C 0.283 -0.042333335 0.29533333 -0.021333335 0.32 -0.014C 0.32533336 -0.012 0.33133334 -0.011 0.338 -0.011C 0.37133336 -0.011 0.4016667 -0.02766667 0.429 -0.061C 0.44700003 -0.08233334 0.46100003 -0.10933334 0.471 -0.142C 0.47300002 -0.14933333 0.47733337 -0.153 0.484 -0.153C 0.49199998 -0.153 0.496 -0.14966667 0.496 -0.143C 0.496 -0.12633334 0.48566666 -0.10233334 0.465 -0.071C 0.42900002 -0.016333334 0.38600004 0.011 0.336 0.011C 0.2906667 0.011 0.25766668 -0.008 0.237 -0.046C 0.23300001 -0.052 0.23000002 -0.058333337 0.228 -0.065C 0.21200001 -0.033 0.19000001 -0.0106666675 0.162 0.002C 0.14933334 0.008 0.13633335 0.011 0.123 0.011C 0.083000004 0.011 0.055000003 -0.0006666668 0.039 -0.024C 0.032333333 -0.03266667 0.029 -0.043 0.029 -0.055C 0.029 -0.079666674 0.039666668 -0.097 0.061 -0.107C 0.068333335 -0.111 0.076000005 -0.113000005 0.084 -0.113C 0.104 -0.113000005 0.116000004 -0.104666665 0.12 -0.088C 0.12066667 -0.08466667 0.12100001 -0.08133333 0.121 -0.078C 0.12100001 -0.055333335 0.10966667 -0.03866667 0.087 -0.028C 0.083000004 -0.026 0.07866667 -0.024666667 0.074 -0.024C 0.088 -0.015333334 0.104666665 -0.011 0.124 -0.011C 0.15933333 -0.011 0.18733335 -0.03466667 0.208 -0.082C 0.21200001 -0.09200001 0.21566667 -0.10300001 0.219 -0.115C 0.255 -0.25100002 0.273 -0.33033335 0.273 -0.353C 0.269 -0.39433333 0.251 -0.4166667 0.219 -0.42C 0.18433332 -0.42000002 0.15266666 -0.40233335 0.124 -0.367L0.124 -0.367L0.124 -0.366C 0.124 -0.36533335 0.12366667 -0.365 0.123 -0.365C 0.113000005 -0.3516667 0.104 -0.33633333 0.096 -0.319C 0.09266667 -0.31100002 0.089666665 -0.303 0.087 -0.295L0.087 -0.295L0.085 -0.289C 0.08366667 -0.2816667 0.079333335 -0.278 0.072 -0.278C 0.063999996 -0.278 0.06 -0.28133333 0.06 -0.288C 0.06 -0.30466667 0.07066667 -0.3286667 0.092 -0.36C 0.128 -0.41466668 0.171 -0.44200003 0.221 -0.442C 0.27233335 -0.44200003 0.30833334 -0.4166667 0.329 -0.366C 0.35033333 -0.40733334 0.3786667 -0.432 0.414 -0.44C 0.4206667 -0.44133335 0.42733335 -0.44200003 0.434 -0.442C 0.47333336 -0.44200003 0.50100005 -0.43100002 0.517 -0.409C 0.5236667 -0.3996667 0.527 -0.3886667 0.527 -0.376C 0.527 -0.34866667 0.5146667 -0.33033335 0.49 -0.321C 0.48400003 -0.319 0.47833335 -0.318 0.473 -0.318C 0.45233333 -0.318 0.44 -0.327 0.436 -0.345C 0.43533337 -0.34766668 0.43500003 -0.35033333 0.435 -0.353C 0.43500003 -0.373 0.44466668 -0.3886667 0.464 -0.4C 0.47 -0.40333337 0.47633335 -0.40566668 0.483 -0.407C 0.46900004 -0.41566667 0.45233336 -0.42000002 0.433 -0.42C 0.38766667 -0.42000002 0.3556667 -0.38466668 0.337 -0.314C 0.3356667 -0.31 0.33466667 -0.306 0.334 -0.302z" stroke="none" fill="#000000" fill-rule="nonzero" />
				</g>
				<g transform="matrix(0.7 0 0 0.7 7.9639697 9.828714)">
                    <path d="M0.206 -0.4L0.132 -0.105C 0.128 -0.08833334 0.12600002 -0.072333336 0.126 -0.057C 0.12600002 -0.026333336 0.13633335 -0.011 0.157 -0.011C 0.20100002 -0.011 0.23966669 -0.043333337 0.273 -0.108L0.273 -0.108L0.287 -0.139C 0.291 -0.14766666 0.296 -0.15233333 0.302 -0.153C 0.31 -0.153 0.314 -0.14966667 0.314 -0.143C 0.314 -0.13433334 0.30533335 -0.11533333 0.288 -0.086C 0.24933334 -0.021333333 0.20500001 0.011 0.155 0.011C 0.11633334 0.011 0.08900001 -0.005 0.073 -0.037C 0.06633334 -0.050333336 0.06300001 -0.065000005 0.063 -0.081C 0.06300001 -0.09366667 0.083333336 -0.18 0.124 -0.34L0.124 -0.34L0.139 -0.4L0.051 -0.4C 0.034333333 -0.40000004 0.025333334 -0.4026667 0.024 -0.408L0.024 -0.408L0.023 -0.408L0.023 -0.412C 0.023000002 -0.42333335 0.028333334 -0.4296667 0.039 -0.431L0.039 -0.431L0.053 -0.431L0.147 -0.431L0.186 -0.59C 0.192 -0.61333334 0.20533332 -0.62533337 0.226 -0.626C 0.24333334 -0.626 0.25300002 -0.617 0.255 -0.599C 0.255 -0.595 0.24133334 -0.53900003 0.214 -0.431L0.214 -0.431L0.302 -0.431C 0.31933334 -0.431 0.3286667 -0.42733335 0.33 -0.42C 0.33 -0.408 0.32466668 -0.40133333 0.314 -0.4L0.314 -0.4L0.313 -0.4L0.3 -0.4L0.206 -0.4z" stroke="none" fill="#000000" fill-rule="nonzero" />
				</g>
				<g transform="matrix(1 0 0 1 8.21667 9.678715)">
                    <path d="M0.289 -0.25C 0.28900003 -0.13733333 0.268 -0.035666667 0.226 0.055C 0.19133332 0.129 0.14733332 0.18833333 0.094 0.233C 0.08 0.24433334 0.071 0.25 0.067 0.25C 0.060333338 0.25 0.057000004 0.24666667 0.057 0.24C 0.057000004 0.23666666 0.061333336 0.231 0.07 0.223C 0.17733335 0.113666676 0.23100002 -0.044 0.231 -0.25C 0.23100002 -0.45333335 0.18100001 -0.60733336 0.081 -0.712L0.081 -0.712L0.076 -0.717C 0.06333333 -0.72900003 0.057000004 -0.7366667 0.057 -0.74C 0.057000004 -0.74666667 0.060333338 -0.75 0.067 -0.75C 0.075 -0.75 0.09266667 -0.7363334 0.12 -0.709C 0.16133332 -0.6676667 0.19566667 -0.6186667 0.223 -0.562C 0.26700002 -0.47133332 0.28900003 -0.36733335 0.289 -0.25z" stroke="none" fill="#000000" fill-rule="nonzero" />
				</g>
			</g>
            <path d="M37.5 109L166.5 109C 168.433 109 170 110.567 170 112.5L170 112.5L170 139.5C 170 141.433 168.433 143 166.5 143L166.5 143L37.5 143C 35.567005 143 34 141.433 34 139.5L34 139.5L34 112.5C 34 110.567 35.567005 109 37.5 109z" stroke="none" fill="#FFFFFF" fill-rule="nonzero" />
            <path d="M37.5 109L166.5 109C 168.433 109 170 110.567 170 112.5L170 112.5L170 139.5C 170 141.433 168.433 143 166.5 143L166.5 143L37.5 143C 35.567005 143 34 141.433 34 139.5L34 139.5L34 112.5C 34 110.567 35.567005 109 37.5 109z" stroke="#000000" stroke-width="1" stroke-linecap="square" fill="none" />
			<text transform="matrix(1 0 0 1 0 0)" x="44" y="136" style="fill:#000000;font-family:ABeeZee;" font-size="24">
Show SVG
			</text>
            <path d="M204.5 106L380.5 106C 382.43298 106 384 107.567 384 109.5L384 109.5L384 136.5C 384 138.433 382.43298 140 380.5 140L380.5 140L204.5 140C 202.567 140 201 138.433 201 136.5L201 136.5L201 109.5C 201 107.567 202.567 106 204.5 106z" stroke="none" fill="#FFFFFF" fill-rule="nonzero" />
            <path d="M204.5 106L380.5 106C 382.43298 106 384 107.567 384 109.5L384 109.5L384 136.5C 384 138.433 382.43298 140 380.5 140L380.5 140L204.5 140C 202.567 140 201 138.433 201 136.5L201 136.5L201 109.5C 201 107.567 202.567 106 204.5 106z" stroke="#000000" stroke-width="1" stroke-linecap="square" fill="none" />
			<text transform="matrix(1 0 0 1 0 0)" x="211" y="133" style="fill:#000000;font-family:ABeeZee;" font-size="24">
Download SVG
			</text>
            <path d="M212 30L722 30C 724.20917 30 726 31.790861 726 34L726 34L726 75C 726 77.20914 724.20917 79 722 79L722 79L212 79C 209.79086 79 208 77.20914 208 75L208 75L208 34C 208 31.790861 209.79086 30 212 30z" stroke="none" fill="#FFFFFF" fill-rule="nonzero" />
            <path d="M212 30L722 30C 724.20917 30 726 31.790861 726 34L726 34L726 75C 726 77.20914 724.20917 79 722 79L722 79L212 79C 209.79086 79 208 77.20914 208 75L208 75L208 34C 208 31.790861 209.79086 30 212 30z" stroke="#000000" stroke-width="1" stroke-linecap="square" fill="none" />
			<text transform="matrix(1 0 0 1 0 0)" x="210" y="66" style="fill:#000000;font-family:ABeeZee;" font-size="32">
x
			</text>
			<text transform="matrix(1 0 0 1 0 0)" x="226" y="80" style="fill:#000000;font-family:ABeeZee;" font-size="28">
t+1
			</text>
			<text transform="matrix(1 0 0 1 0 0)" x="266" y="66" style="fill:#000000;font-family:ABeeZee;" font-size="32">
= x
			</text>
			<text transform="matrix(1 0 0 1 0 0)" x="318" y="80" style="fill:#000000;font-family:ABeeZee;" font-size="28">
t
			</text>
			<text transform="matrix(1 0 0 1 0 0)" x="326" y="66" style="fill:#000000;font-family:ABeeZee;" font-size="32">
- \eta
			</text>
			<text transform="matrix(1 0 0 1 0 0)" x="408" y="80" style="fill:#000000;font-family:ABeeZee;" font-size="28">
t
			</text>
			<text transform="matrix(1 0 0 1 0 0)" x="416" y="66" style="fill:#000000;font-family:ABeeZee;" font-size="32">
g
			</text>
			<text transform="matrix(1 0 0 1 0 0)" x="443" y="80" style="fill:#000000;font-family:ABeeZee;" font-size="28">
t
			</text>
			<text transform="matrix(1 0 0 1 0 0)" x="451" y="66" style="fill:#000000;font-family:ABeeZee;" font-size="32">
\\ \mathbb{
			</text>
			<text transform="matrix(1 0 0 1 0 0)" x="30" y="66" style="fill:#000000;font-family:ABeeZee;" font-size="32">
Enter LaTeX
			</text>
		</g>
	</g>
</g>
</svg>