<?xml version="1.0" encoding="UTF-8"?>
<svg xmlns="http://www.w3.org/2000/svg" xmlns:xlink="http://www.w3.org/1999/xlink" width="300px" height="300px" viewBox="0 0 300 300" version="1.1">
<defs>
<clipPath id="clip1">
  <path d="M 30.746094 221.710938 L 44.660156 221.710938 L 44.660156 261.359375 L 30.746094 261.359375 Z M 30.746094 221.710938 "/>
</clipPath>
<clipPath id="clip2">
  <path d="M 69.359375 221.710938 L 83.273438 221.710938 L 83.273438 261.359375 L 69.359375 261.359375 Z M 69.359375 221.710938 "/>
</clipPath>
<clipPath id="clip3">
  <path d="M 107.972656 221.710938 L 121.886719 221.710938 L 121.886719 261.359375 L 107.972656 261.359375 Z M 107.972656 221.710938 "/>
</clipPath>
<clipPath id="clip4">
  <path d="M 146.585938 221.710938 L 160.5 221.710938 L 160.5 261.359375 L 146.585938 261.359375 Z M 146.585938 221.710938 "/>
</clipPath>
<clipPath id="clip5">
  <path d="M 185.199219 221.710938 L 199.113281 221.710938 L 199.113281 261.359375 L 185.199219 261.359375 Z M 185.199219 221.710938 "/>
</clipPath>
<clipPath id="clip6">
  <path d="M 223.8125 221.710938 L 237.726562 221.710938 L 237.726562 261.359375 L 223.8125 261.359375 Z M 223.8125 221.710938 "/>
</clipPath>
<clipPath id="clip7">
  <path d="M 262.421875 221.710938 L 276.339844 221.710938 L 276.339844 261.359375 L 262.421875 261.359375 Z M 262.421875 221.710938 "/>
</clipPath>
<clipPath id="clip8">
  <path d="M 30.746094 144.578125 L 44.660156 144.578125 L 44.660156 184.226562 L 30.746094 184.226562 Z M 30.746094 144.578125 "/>
</clipPath>
<clipPath id="clip9">
  <path d="M 69.359375 144.578125 L 83.273438 144.578125 L 83.273438 184.226562 L 69.359375 184.226562 Z M 69.359375 144.578125 "/>
</clipPath>
<clipPath id="clip10">
  <path d="M 107.972656 144.578125 L 121.886719 144.578125 L 121.886719 184.226562 L 107.972656 184.226562 Z M 107.972656 144.578125 "/>
</clipPath>
<clipPath id="clip11">
  <path d="M 146.585938 144.578125 L 160.5 144.578125 L 160.5 184.226562 L 146.585938 184.226562 Z M 146.585938 144.578125 "/>
</clipPath>
<clipPath id="clip12">
  <path d="M 185.199219 144.578125 L 199.113281 144.578125 L 199.113281 184.226562 L 185.199219 184.226562 Z M 185.199219 144.578125 "/>
</clipPath>
<clipPath id="clip13">
  <path d="M 223.8125 144.578125 L 237.726562 144.578125 L 237.726562 184.226562 L 223.8125 184.226562 Z M 223.8125 144.578125 "/>
</clipPath>
<clipPath id="clip14">
  <path d="M 262.421875 144.578125 L 276.339844 144.578125 L 276.339844 184.226562 L 262.421875 184.226562 Z M 262.421875 144.578125 "/>
</clipPath>
<clipPath id="clip15">
  <path d="M 30.746094 67.449219 L 44.660156 67.449219 L 44.660156 107.097656 L 30.746094 107.097656 Z M 30.746094 67.449219 "/>
</clipPath>
<clipPath id="clip16">
  <path d="M 69.359375 67.449219 L 83.273438 67.449219 L 83.273438 107.097656 L 69.359375 107.097656 Z M 69.359375 67.449219 "/>
</clipPath>
<clipPath id="clip17">
  <path d="M 107.972656 67.449219 L 121.886719 67.449219 L 121.886719 107.097656 L 107.972656 107.097656 Z M 107.972656 67.449219 "/>
</clipPath>
<clipPath id="clip18">
  <path d="M 146.585938 67.449219 L 160.5 67.449219 L 160.5 107.097656 L 146.585938 107.097656 Z M 146.585938 67.449219 "/>
</clipPath>
<clipPath id="clip19">
  <path d="M 185.199219 67.449219 L 199.113281 67.449219 L 199.113281 107.097656 L 185.199219 107.097656 Z M 185.199219 67.449219 "/>
</clipPath>
<clipPath id="clip20">
  <path d="M 223.8125 67.449219 L 237.726562 67.449219 L 237.726562 107.097656 L 223.8125 107.097656 Z M 223.8125 67.449219 "/>
</clipPath>
<clipPath id="clip21">
  <path d="M 262.421875 67.449219 L 276.339844 67.449219 L 276.339844 107.097656 L 262.421875 107.097656 Z M 262.421875 67.449219 "/>
</clipPath>
</defs>
<g id="surface1">
<rect x="0" y="0" width="300" height="300" style="fill:rgb(100%,100%,100%);fill-opacity:1;stroke:none;"/>
<g clip-path="url(#clip1)" clip-rule="nonzero">
<path style=" stroke:none;fill-rule:nonzero;fill:rgb(36.862745%,6.666667%,56.862745%);fill-opacity:1;" d="M 37.691406 248.53125 C 36.34375 248.53125 35.242188 245.382812 35.242188 241.535156 C 35.242188 237.6875 36.34375 234.539062 37.691406 234.539062 C 39.039062 234.539062 40.144531 237.6875 40.144531 241.535156 C 40.144531 245.382812 39.039062 248.53125 37.691406 248.53125 Z M 43.210938 237.164062 C 43.085938 235.882812 42.902344 234.652344 42.679688 233.550781 L 43.1875 229.175781 L 42.023438 225.851562 L 40.492188 227.308594 C 40.082031 226.667969 39.652344 226.140625 39.203125 225.792969 L 38.511719 221.710938 L 36.875 221.710938 L 36.160156 225.792969 C 35.710938 226.140625 35.28125 226.667969 34.894531 227.308594 L 33.363281 225.851562 L 32.195312 229.175781 L 32.707031 233.550781 C 32.480469 234.714844 32.296875 235.9375 32.175781 237.21875 L 30.746094 239.203125 L 30.746094 243.867188 L 32.175781 245.910156 C 32.296875 247.191406 32.480469 248.417969 32.707031 249.523438 L 32.195312 253.894531 L 33.363281 257.222656 L 34.894531 255.761719 C 35.300781 256.402344 35.730469 256.929688 36.179688 257.277344 L 36.894531 261.359375 L 38.53125 261.359375 L 39.246094 257.277344 C 39.695312 256.929688 40.125 256.402344 40.511719 255.761719 L 42.046875 257.222656 L 43.210938 253.894531 L 42.699219 249.523438 C 42.921875 248.355469 43.105469 247.132812 43.230469 245.851562 L 44.660156 243.808594 L 44.660156 239.144531 Z M 43.210938 237.164062 "/>
</g>
<g clip-path="url(#clip2)" clip-rule="nonzero">
<path style=" stroke:none;fill-rule:nonzero;fill:rgb(36.862745%,6.666667%,56.862745%);fill-opacity:1;" d="M 76.304688 248.53125 C 74.957031 248.53125 73.855469 245.382812 73.855469 241.535156 C 73.855469 237.6875 74.957031 234.539062 76.304688 234.539062 C 77.65625 234.539062 78.757812 237.6875 78.757812 241.535156 C 78.757812 245.382812 77.65625 248.53125 76.304688 248.53125 Z M 81.824219 237.164062 C 81.699219 235.882812 81.515625 234.652344 81.292969 233.550781 L 81.804688 229.175781 L 80.636719 225.851562 L 79.105469 227.308594 C 78.695312 226.667969 78.269531 226.140625 77.820312 225.792969 L 77.125 221.710938 L 75.488281 221.710938 L 74.773438 225.792969 C 74.324219 226.140625 73.894531 226.667969 73.507812 227.308594 L 71.976562 225.851562 L 70.808594 229.175781 L 71.320312 233.550781 C 71.097656 234.714844 70.910156 235.9375 70.789062 237.21875 L 69.359375 239.203125 L 69.359375 243.867188 L 70.789062 245.910156 C 70.910156 247.191406 71.097656 248.417969 71.320312 249.523438 L 70.808594 253.894531 L 71.976562 257.222656 L 73.507812 255.761719 C 73.917969 256.402344 74.34375 256.929688 74.792969 257.277344 L 75.507812 261.359375 L 77.144531 261.359375 L 77.859375 257.277344 C 78.308594 256.929688 78.738281 256.402344 79.125 255.761719 L 80.660156 257.222656 L 81.824219 253.894531 L 81.3125 249.523438 C 81.535156 248.355469 81.722656 247.132812 81.84375 245.851562 L 83.273438 243.808594 L 83.273438 239.144531 Z M 81.824219 237.164062 "/>
</g>
<g clip-path="url(#clip3)" clip-rule="nonzero">
<path style=" stroke:none;fill-rule:nonzero;fill:rgb(36.862745%,6.666667%,56.862745%);fill-opacity:1;" d="M 114.917969 248.53125 C 113.570312 248.53125 112.46875 245.382812 112.46875 241.535156 C 112.46875 237.6875 113.570312 234.539062 114.917969 234.539062 C 116.265625 234.539062 117.371094 237.6875 117.371094 241.535156 C 117.371094 245.382812 116.265625 248.53125 114.917969 248.53125 Z M 120.4375 237.164062 C 120.3125 235.882812 120.128906 234.652344 119.90625 233.550781 L 120.414062 229.175781 L 119.25 225.851562 L 117.71875 227.308594 C 117.308594 226.667969 116.878906 226.140625 116.429688 225.792969 L 115.734375 221.710938 L 114.101562 221.710938 L 113.386719 225.792969 C 112.9375 226.140625 112.507812 226.667969 112.121094 227.308594 L 110.585938 225.851562 L 109.421875 229.175781 L 109.933594 233.550781 C 109.707031 234.714844 109.523438 235.9375 109.402344 237.21875 L 107.972656 239.203125 L 107.972656 243.867188 L 109.402344 245.910156 C 109.523438 247.191406 109.707031 248.417969 109.933594 249.523438 L 109.421875 253.894531 L 110.585938 257.222656 L 112.121094 255.761719 C 112.527344 256.402344 112.957031 256.929688 113.40625 257.277344 L 114.121094 261.359375 L 115.757812 261.359375 L 116.472656 257.277344 C 116.921875 256.929688 117.351562 256.402344 117.738281 255.761719 L 119.269531 257.222656 L 120.4375 253.894531 L 119.925781 249.523438 C 120.148438 248.355469 120.332031 247.132812 120.457031 245.851562 L 121.886719 243.808594 L 121.886719 239.144531 Z M 120.4375 237.164062 "/>
</g>
<g clip-path="url(#clip4)" clip-rule="nonzero">
<path style=" stroke:none;fill-rule:nonzero;fill:rgb(36.862745%,6.666667%,56.862745%);fill-opacity:1;" d="M 153.53125 248.53125 C 152.183594 248.53125 151.082031 245.382812 151.082031 241.535156 C 151.082031 237.6875 152.183594 234.539062 153.53125 234.539062 C 154.878906 234.539062 155.984375 237.6875 155.984375 241.535156 C 155.984375 245.382812 154.878906 248.53125 153.53125 248.53125 Z M 159.050781 237.164062 C 158.925781 235.882812 158.742188 234.652344 158.519531 233.550781 L 159.027344 229.175781 L 157.863281 225.851562 L 156.332031 227.308594 C 155.921875 226.667969 155.492188 226.140625 155.042969 225.792969 L 154.351562 221.710938 L 152.714844 221.710938 L 152 225.792969 C 151.550781 226.140625 151.121094 226.667969 150.734375 227.308594 L 149.203125 225.851562 L 148.035156 229.175781 L 148.546875 233.550781 C 148.320312 234.714844 148.136719 235.9375 148.015625 237.21875 L 146.585938 239.203125 L 146.585938 243.867188 L 148.015625 245.910156 C 148.136719 247.191406 148.320312 248.417969 148.546875 249.523438 L 148.035156 253.894531 L 149.203125 257.222656 L 150.734375 255.761719 C 151.140625 256.402344 151.570312 256.929688 152.019531 257.277344 L 152.734375 261.359375 L 154.371094 261.359375 L 155.085938 257.277344 C 155.535156 256.929688 155.964844 256.402344 156.351562 255.761719 L 157.886719 257.222656 L 159.050781 253.894531 L 158.539062 249.523438 C 158.761719 248.355469 158.945312 247.132812 159.070312 245.851562 L 160.5 243.808594 L 160.5 239.144531 Z M 159.050781 237.164062 "/>
</g>
<g clip-path="url(#clip5)" clip-rule="nonzero">
<path style=" stroke:none;fill-rule:nonzero;fill:rgb(36.862745%,6.666667%,56.862745%);fill-opacity:1;" d="M 192.144531 248.53125 C 190.796875 248.53125 189.691406 245.382812 189.691406 241.535156 C 189.691406 237.6875 190.796875 234.539062 192.144531 234.539062 C 193.492188 234.539062 194.597656 237.6875 194.597656 241.535156 C 194.597656 245.382812 193.492188 248.53125 192.144531 248.53125 Z M 197.660156 237.164062 C 197.539062 235.882812 197.355469 234.652344 197.128906 233.550781 L 197.640625 229.175781 L 196.476562 225.851562 L 194.945312 227.308594 C 194.535156 226.667969 194.105469 226.140625 193.65625 225.792969 L 192.960938 221.710938 L 191.328125 221.710938 L 190.613281 225.792969 C 190.164062 226.140625 189.734375 226.667969 189.347656 227.308594 L 187.8125 225.851562 L 186.648438 229.175781 L 187.160156 233.550781 C 186.933594 234.714844 186.75 235.9375 186.628906 237.21875 L 185.199219 239.203125 L 185.199219 243.867188 L 186.628906 245.910156 C 186.75 247.191406 186.933594 248.417969 187.160156 249.523438 L 186.648438 253.894531 L 187.8125 257.222656 L 189.347656 255.761719 C 189.753906 256.402344 190.183594 256.929688 190.632812 257.277344 L 191.347656 261.359375 L 192.980469 261.359375 L 193.699219 257.277344 C 194.148438 256.929688 194.578125 256.402344 194.964844 255.761719 L 196.496094 257.222656 L 197.660156 253.894531 L 197.152344 249.523438 C 197.375 248.355469 197.558594 247.132812 197.683594 245.851562 L 199.113281 243.808594 L 199.113281 239.144531 Z M 197.660156 237.164062 "/>
</g>
<g clip-path="url(#clip6)" clip-rule="nonzero">
<path style=" stroke:none;fill-rule:nonzero;fill:rgb(36.862745%,6.666667%,56.862745%);fill-opacity:1;" d="M 230.757812 248.53125 C 229.410156 248.53125 228.304688 245.382812 228.304688 241.535156 C 228.304688 237.6875 229.410156 234.539062 230.757812 234.539062 C 232.105469 234.539062 233.210938 237.6875 233.210938 241.535156 C 233.210938 245.382812 232.105469 248.53125 230.757812 248.53125 Z M 236.273438 237.164062 C 236.152344 235.882812 235.96875 234.652344 235.746094 233.550781 L 236.253906 229.175781 L 235.089844 225.851562 L 233.558594 227.308594 C 233.148438 226.667969 232.71875 226.140625 232.269531 225.792969 L 231.574219 221.710938 L 229.941406 221.710938 L 229.226562 225.792969 C 228.777344 226.140625 228.347656 226.667969 227.960938 227.308594 L 226.425781 225.851562 L 225.261719 229.175781 L 225.773438 233.550781 C 225.546875 234.714844 225.363281 235.9375 225.242188 237.21875 L 223.8125 239.203125 L 223.8125 243.867188 L 225.242188 245.910156 C 225.363281 247.191406 225.546875 248.417969 225.773438 249.523438 L 225.261719 253.894531 L 226.425781 257.222656 L 227.960938 255.761719 C 228.367188 256.402344 228.796875 256.929688 229.246094 257.277344 L 229.960938 261.359375 L 231.597656 261.359375 L 232.3125 257.277344 C 232.761719 256.929688 233.191406 256.402344 233.578125 255.761719 L 235.109375 257.222656 L 236.273438 253.894531 L 235.765625 249.523438 C 235.988281 248.355469 236.171875 247.132812 236.296875 245.851562 L 237.726562 243.808594 L 237.726562 239.144531 Z M 236.273438 237.164062 "/>
</g>
<g clip-path="url(#clip7)" clip-rule="nonzero">
<path style=" stroke:none;fill-rule:nonzero;fill:rgb(36.862745%,6.666667%,56.862745%);fill-opacity:1;" d="M 269.371094 248.53125 C 268.023438 248.53125 266.917969 245.382812 266.917969 241.535156 C 266.917969 237.6875 268.023438 234.539062 269.371094 234.539062 C 270.71875 234.539062 271.824219 237.6875 271.824219 241.535156 C 271.824219 245.382812 270.71875 248.53125 269.371094 248.53125 Z M 274.886719 237.164062 C 274.765625 235.882812 274.582031 234.652344 274.355469 233.550781 L 274.867188 229.175781 L 273.703125 225.851562 L 272.167969 227.308594 C 271.761719 226.667969 271.332031 226.140625 270.882812 225.792969 L 270.1875 221.710938 L 268.554688 221.710938 L 267.839844 225.792969 C 267.390625 226.140625 266.960938 226.667969 266.570312 227.308594 L 265.039062 225.851562 L 263.875 229.175781 L 264.386719 233.550781 C 264.160156 234.714844 263.976562 235.9375 263.855469 237.21875 L 262.421875 239.203125 L 262.421875 243.867188 L 263.855469 245.910156 C 263.976562 247.191406 264.160156 248.417969 264.386719 249.523438 L 263.875 253.894531 L 265.039062 257.222656 L 266.570312 255.761719 C 266.980469 256.402344 267.410156 256.929688 267.859375 257.277344 L 268.574219 261.359375 L 270.207031 261.359375 L 270.921875 257.277344 C 271.375 256.929688 271.800781 256.402344 272.191406 255.761719 L 273.722656 257.222656 L 274.886719 253.894531 L 274.375 249.523438 C 274.601562 248.355469 274.785156 247.132812 274.90625 245.851562 L 276.339844 243.808594 L 276.339844 239.144531 Z M 274.886719 237.164062 "/>
</g>
<g clip-path="url(#clip8)" clip-rule="nonzero">
<path style=" stroke:none;fill-rule:nonzero;fill:rgb(36.862745%,6.666667%,56.862745%);fill-opacity:1;" d="M 37.695312 171.398438 C 36.347656 171.398438 35.242188 168.25 35.242188 164.402344 C 35.242188 160.554688 36.347656 157.40625 37.695312 157.40625 C 39.042969 157.40625 40.144531 160.554688 40.144531 164.402344 C 40.144531 168.25 39.042969 171.398438 37.695312 171.398438 Z M 43.210938 160.027344 C 43.089844 158.746094 42.90625 157.519531 42.679688 156.414062 L 43.191406 152.042969 L 42.023438 148.714844 L 40.492188 150.175781 C 40.085938 149.535156 39.65625 149.007812 39.207031 148.660156 L 38.511719 144.578125 L 36.875 144.578125 L 36.160156 148.660156 C 35.710938 149.007812 35.28125 149.535156 34.894531 150.175781 L 33.363281 148.714844 L 32.199219 152.042969 L 32.707031 156.414062 C 32.484375 157.582031 32.300781 158.804688 32.175781 160.085938 L 30.746094 162.070312 L 30.746094 166.734375 L 32.175781 168.773438 C 32.300781 170.054688 32.484375 171.285156 32.707031 172.386719 L 32.199219 176.761719 L 33.363281 180.085938 L 34.894531 178.628906 C 35.304688 179.269531 35.734375 179.796875 36.183594 180.144531 L 36.898438 184.226562 L 38.53125 184.226562 L 39.246094 180.144531 C 39.695312 179.796875 40.125 179.269531 40.515625 178.628906 L 42.046875 180.085938 L 43.210938 176.761719 L 42.699219 172.386719 C 42.925781 171.222656 43.109375 170 43.230469 168.71875 L 44.660156 166.675781 L 44.660156 162.011719 Z M 43.210938 160.027344 "/>
</g>
<g clip-path="url(#clip9)" clip-rule="nonzero">
<path style=" stroke:none;fill-rule:nonzero;fill:rgb(36.862745%,6.666667%,56.862745%);fill-opacity:1;" d="M 76.304688 171.398438 C 74.957031 171.398438 73.855469 168.25 73.855469 164.402344 C 73.855469 160.554688 74.957031 157.40625 76.304688 157.40625 C 77.65625 157.40625 78.757812 160.554688 78.757812 164.402344 C 78.757812 168.25 77.65625 171.398438 76.304688 171.398438 Z M 81.824219 160.027344 C 81.699219 158.746094 81.515625 157.519531 81.292969 156.414062 L 81.804688 152.042969 L 80.636719 148.714844 L 79.105469 150.175781 C 78.695312 149.535156 78.269531 149.007812 77.820312 148.660156 L 77.125 144.578125 L 75.488281 144.578125 L 74.773438 148.660156 C 74.324219 149.007812 73.894531 149.535156 73.507812 150.175781 L 71.976562 148.714844 L 70.808594 152.042969 L 71.320312 156.414062 C 71.097656 157.582031 70.910156 158.804688 70.789062 160.085938 L 69.359375 162.070312 L 69.359375 166.734375 L 70.789062 168.773438 C 70.910156 170.054688 71.097656 171.285156 71.320312 172.386719 L 70.808594 176.761719 L 71.976562 180.085938 L 73.507812 178.628906 C 73.917969 179.269531 74.34375 179.796875 74.792969 180.144531 L 75.507812 184.226562 L 77.144531 184.226562 L 77.859375 180.144531 C 78.308594 179.796875 78.738281 179.269531 79.125 178.628906 L 80.660156 180.085938 L 81.824219 176.761719 L 81.3125 172.386719 C 81.535156 171.222656 81.722656 170 81.84375 168.71875 L 83.273438 166.675781 L 83.273438 162.011719 Z M 81.824219 160.027344 "/>
</g>
<g clip-path="url(#clip10)" clip-rule="nonzero">
<path style=" stroke:none;fill-rule:nonzero;fill:rgb(36.862745%,6.666667%,56.862745%);fill-opacity:1;" d="M 114.917969 171.398438 C 113.570312 171.398438 112.46875 168.25 112.46875 164.402344 C 112.46875 160.554688 113.570312 157.40625 114.917969 157.40625 C 116.265625 157.40625 117.371094 160.554688 117.371094 164.402344 C 117.371094 168.25 116.265625 171.398438 114.917969 171.398438 Z M 120.4375 160.027344 C 120.3125 158.746094 120.128906 157.519531 119.90625 156.414062 L 120.414062 152.042969 L 119.25 148.714844 L 117.71875 150.175781 C 117.308594 149.535156 116.878906 149.007812 116.429688 148.660156 L 115.734375 144.578125 L 114.101562 144.578125 L 113.386719 148.660156 C 112.9375 149.007812 112.507812 149.535156 112.121094 150.175781 L 110.585938 148.714844 L 109.421875 152.042969 L 109.933594 156.414062 C 109.707031 157.582031 109.523438 158.804688 109.402344 160.085938 L 107.972656 162.070312 L 107.972656 166.734375 L 109.402344 168.773438 C 109.523438 170.054688 109.707031 171.285156 109.933594 172.386719 L 109.421875 176.761719 L 110.585938 180.085938 L 112.121094 178.628906 C 112.527344 179.269531 112.957031 179.796875 113.40625 180.144531 L 114.121094 184.226562 L 115.757812 184.226562 L 116.472656 180.144531 C 116.921875 179.796875 117.351562 179.269531 117.738281 178.628906 L 119.269531 180.085938 L 120.4375 176.761719 L 119.925781 172.386719 C 120.148438 171.222656 120.332031 170 120.457031 168.71875 L 121.886719 166.675781 L 121.886719 162.011719 Z M 120.4375 160.027344 "/>
</g>
<g clip-path="url(#clip11)" clip-rule="nonzero">
<path style=" stroke:none;fill-rule:nonzero;fill:rgb(36.862745%,6.666667%,56.862745%);fill-opacity:1;" d="M 153.53125 171.398438 C 152.183594 171.398438 151.082031 168.25 151.082031 164.402344 C 151.082031 160.554688 152.183594 157.40625 153.53125 157.40625 C 154.878906 157.40625 155.984375 160.554688 155.984375 164.402344 C 155.984375 168.25 154.878906 171.398438 153.53125 171.398438 Z M 159.050781 160.027344 C 158.925781 158.746094 158.742188 157.519531 158.519531 156.414062 L 159.027344 152.042969 L 157.863281 148.714844 L 156.332031 150.175781 C 155.921875 149.535156 155.492188 149.007812 155.042969 148.660156 L 154.351562 144.578125 L 152.714844 144.578125 L 152 148.660156 C 151.550781 149.007812 151.121094 149.535156 150.734375 150.175781 L 149.203125 148.714844 L 148.035156 152.042969 L 148.546875 156.414062 C 148.320312 157.582031 148.136719 158.804688 148.015625 160.085938 L 146.585938 162.070312 L 146.585938 166.734375 L 148.015625 168.773438 C 148.136719 170.054688 148.320312 171.285156 148.546875 172.386719 L 148.035156 176.761719 L 149.203125 180.085938 L 150.734375 178.628906 C 151.140625 179.269531 151.570312 179.796875 152.019531 180.144531 L 152.734375 184.226562 L 154.371094 184.226562 L 155.085938 180.144531 C 155.535156 179.796875 155.964844 179.269531 156.351562 178.628906 L 157.886719 180.085938 L 159.050781 176.761719 L 158.539062 172.386719 C 158.761719 171.222656 158.945312 170 159.070312 168.71875 L 160.5 166.675781 L 160.5 162.011719 Z M 159.050781 160.027344 "/>
</g>
<g clip-path="url(#clip12)" clip-rule="nonzero">
<path style=" stroke:none;fill-rule:nonzero;fill:rgb(36.862745%,6.666667%,56.862745%);fill-opacity:1;" d="M 192.144531 171.398438 C 190.796875 171.398438 189.691406 168.25 189.691406 164.402344 C 189.691406 160.554688 190.796875 157.40625 192.144531 157.40625 C 193.492188 157.40625 194.597656 160.554688 194.597656 164.402344 C 194.597656 168.25 193.492188 171.398438 192.144531 171.398438 Z M 197.660156 160.027344 C 197.539062 158.746094 197.355469 157.519531 197.128906 156.414062 L 197.640625 152.042969 L 196.476562 148.714844 L 194.945312 150.175781 C 194.535156 149.535156 194.105469 149.007812 193.65625 148.660156 L 192.960938 144.578125 L 191.328125 144.578125 L 190.613281 148.660156 C 190.164062 149.007812 189.734375 149.535156 189.347656 150.175781 L 187.8125 148.714844 L 186.648438 152.042969 L 187.160156 156.414062 C 186.933594 157.582031 186.75 158.804688 186.628906 160.085938 L 185.199219 162.070312 L 185.199219 166.734375 L 186.628906 168.773438 C 186.75 170.054688 186.933594 171.285156 187.160156 172.386719 L 186.648438 176.761719 L 187.8125 180.085938 L 189.347656 178.628906 C 189.753906 179.269531 190.183594 179.796875 190.632812 180.144531 L 191.347656 184.226562 L 192.980469 184.226562 L 193.699219 180.144531 C 194.148438 179.796875 194.578125 179.269531 194.964844 178.628906 L 196.496094 180.085938 L 197.660156 176.761719 L 197.152344 172.386719 C 197.375 171.222656 197.558594 170 197.683594 168.71875 L 199.113281 166.675781 L 199.113281 162.011719 Z M 197.660156 160.027344 "/>
</g>
<g clip-path="url(#clip13)" clip-rule="nonzero">
<path style=" stroke:none;fill-rule:nonzero;fill:rgb(36.862745%,6.666667%,56.862745%);fill-opacity:1;" d="M 230.757812 171.398438 C 229.410156 171.398438 228.304688 168.25 228.304688 164.402344 C 228.304688 160.554688 229.410156 157.40625 230.757812 157.40625 C 232.105469 157.40625 233.210938 160.554688 233.210938 164.402344 C 233.210938 168.25 232.105469 171.398438 230.757812 171.398438 Z M 236.273438 160.027344 C 236.152344 158.746094 235.96875 157.519531 235.746094 156.414062 L 236.253906 152.042969 L 235.089844 148.714844 L 233.558594 150.175781 C 233.148438 149.535156 232.71875 149.007812 232.269531 148.660156 L 231.574219 144.578125 L 229.941406 144.578125 L 229.226562 148.660156 C 228.777344 149.007812 228.347656 149.535156 227.960938 150.175781 L 226.425781 148.714844 L 225.261719 152.042969 L 225.773438 156.414062 C 225.546875 157.582031 225.363281 158.804688 225.242188 160.085938 L 223.8125 162.070312 L 223.8125 166.734375 L 225.242188 168.773438 C 225.363281 170.054688 225.546875 171.285156 225.773438 172.386719 L 225.261719 176.761719 L 226.425781 180.085938 L 227.960938 178.628906 C 228.367188 179.269531 228.796875 179.796875 229.246094 180.144531 L 229.960938 184.226562 L 231.597656 184.226562 L 232.3125 180.144531 C 232.761719 179.796875 233.191406 179.269531 233.578125 178.628906 L 235.109375 180.085938 L 236.273438 176.761719 L 235.765625 172.386719 C 235.988281 171.222656 236.171875 170 236.296875 168.71875 L 237.726562 166.675781 L 237.726562 162.011719 Z M 236.273438 160.027344 "/>
</g>
<g clip-path="url(#clip14)" clip-rule="nonzero">
<path style=" stroke:none;fill-rule:nonzero;fill:rgb(36.862745%,6.666667%,56.862745%);fill-opacity:1;" d="M 269.371094 171.398438 C 268.023438 171.398438 266.917969 168.25 266.917969 164.402344 C 266.917969 160.554688 268.023438 157.40625 269.371094 157.40625 C 270.71875 157.40625 271.824219 160.554688 271.824219 164.402344 C 271.824219 168.25 270.71875 171.398438 269.371094 171.398438 Z M 274.886719 160.027344 C 274.765625 158.746094 274.582031 157.519531 274.355469 156.414062 L 274.867188 152.042969 L 273.703125 148.714844 L 272.167969 150.175781 C 271.761719 149.535156 271.332031 149.007812 270.882812 148.660156 L 270.1875 144.578125 L 268.554688 144.578125 L 267.839844 148.660156 C 267.390625 149.007812 266.960938 149.535156 266.570312 150.175781 L 265.039062 148.714844 L 263.875 152.042969 L 264.386719 156.414062 C 264.160156 157.582031 263.976562 158.804688 263.855469 160.085938 L 262.421875 162.070312 L 262.421875 166.734375 L 263.855469 168.773438 C 263.976562 170.054688 264.160156 171.285156 264.386719 172.386719 L 263.875 176.761719 L 265.039062 180.085938 L 266.570312 178.628906 C 266.980469 179.269531 267.410156 179.796875 267.859375 180.144531 L 268.574219 184.226562 L 270.207031 184.226562 L 270.921875 180.144531 C 271.375 179.796875 271.800781 179.269531 272.191406 178.628906 L 273.722656 180.085938 L 274.886719 176.761719 L 274.375 172.386719 C 274.601562 171.222656 274.785156 170 274.90625 168.71875 L 276.339844 166.675781 L 276.339844 162.011719 Z M 274.886719 160.027344 "/>
</g>
<g clip-path="url(#clip15)" clip-rule="nonzero">
<path style=" stroke:none;fill-rule:nonzero;fill:rgb(36.862745%,6.666667%,56.862745%);fill-opacity:1;" d="M 37.695312 94.269531 C 36.347656 94.269531 35.242188 91.121094 35.242188 87.273438 C 35.242188 83.425781 36.347656 80.273438 37.695312 80.273438 C 39.042969 80.273438 40.144531 83.425781 40.144531 87.273438 C 40.144531 91.121094 39.042969 94.269531 37.695312 94.269531 Z M 43.210938 82.898438 C 43.089844 81.617188 42.90625 80.390625 42.679688 79.285156 L 43.191406 74.914062 L 42.023438 71.585938 L 40.492188 73.042969 C 40.085938 72.402344 39.65625 71.878906 39.207031 71.527344 L 38.511719 67.449219 L 36.875 67.449219 L 36.160156 71.527344 C 35.710938 71.878906 35.28125 72.402344 34.894531 73.042969 L 33.363281 71.585938 L 32.199219 74.914062 L 32.707031 79.285156 C 32.484375 80.453125 32.300781 81.675781 32.175781 82.957031 L 30.746094 84.941406 L 30.746094 89.605469 L 32.175781 91.644531 C 32.300781 92.925781 32.484375 94.152344 32.707031 95.257812 L 32.199219 99.632812 L 33.363281 102.957031 L 34.894531 101.5 C 35.304688 102.140625 35.734375 102.667969 36.183594 103.015625 L 36.898438 107.097656 L 38.53125 107.097656 L 39.246094 103.015625 C 39.695312 102.667969 40.125 102.140625 40.515625 101.5 L 42.046875 102.957031 L 43.210938 99.632812 L 42.699219 95.257812 C 42.925781 94.09375 43.109375 92.867188 43.230469 91.585938 L 44.660156 89.546875 L 44.660156 84.882812 Z M 43.210938 82.898438 "/>
</g>
<g clip-path="url(#clip16)" clip-rule="nonzero">
<path style=" stroke:none;fill-rule:nonzero;fill:rgb(36.862745%,6.666667%,56.862745%);fill-opacity:1;" d="M 76.304688 94.269531 C 74.957031 94.269531 73.855469 91.121094 73.855469 87.273438 C 73.855469 83.425781 74.957031 80.273438 76.304688 80.273438 C 77.65625 80.273438 78.757812 83.425781 78.757812 87.273438 C 78.757812 91.121094 77.65625 94.269531 76.304688 94.269531 Z M 81.824219 82.898438 C 81.699219 81.617188 81.515625 80.390625 81.292969 79.285156 L 81.804688 74.914062 L 80.636719 71.585938 L 79.105469 73.042969 C 78.695312 72.402344 78.269531 71.878906 77.820312 71.527344 L 77.125 67.449219 L 75.488281 67.449219 L 74.773438 71.527344 C 74.324219 71.878906 73.894531 72.402344 73.507812 73.042969 L 71.976562 71.585938 L 70.808594 74.914062 L 71.320312 79.285156 C 71.097656 80.453125 70.910156 81.675781 70.789062 82.957031 L 69.359375 84.941406 L 69.359375 89.605469 L 70.789062 91.644531 C 70.910156 92.925781 71.097656 94.152344 71.320312 95.257812 L 70.808594 99.632812 L 71.976562 102.957031 L 73.507812 101.5 C 73.917969 102.140625 74.34375 102.667969 74.792969 103.015625 L 75.507812 107.097656 L 77.144531 107.097656 L 77.859375 103.015625 C 78.308594 102.667969 78.738281 102.140625 79.125 101.5 L 80.660156 102.957031 L 81.824219 99.632812 L 81.3125 95.257812 C 81.535156 94.09375 81.722656 92.867188 81.84375 91.585938 L 83.273438 89.546875 L 83.273438 84.882812 Z M 81.824219 82.898438 "/>
</g>
<g clip-path="url(#clip17)" clip-rule="nonzero">
<path style=" stroke:none;fill-rule:nonzero;fill:rgb(36.862745%,6.666667%,56.862745%);fill-opacity:1;" d="M 114.917969 94.269531 C 113.570312 94.269531 112.46875 91.121094 112.46875 87.273438 C 112.46875 83.425781 113.570312 80.273438 114.917969 80.273438 C 116.265625 80.273438 117.371094 83.425781 117.371094 87.273438 C 117.371094 91.121094 116.265625 94.269531 114.917969 94.269531 Z M 120.4375 82.898438 C 120.3125 81.617188 120.128906 80.390625 119.90625 79.285156 L 120.414062 74.914062 L 119.25 71.585938 L 117.71875 73.042969 C 117.308594 72.402344 116.878906 71.878906 116.429688 71.527344 L 115.734375 67.449219 L 114.101562 67.449219 L 113.386719 71.527344 C 112.9375 71.878906 112.507812 72.402344 112.121094 73.042969 L 110.585938 71.585938 L 109.421875 74.914062 L 109.933594 79.285156 C 109.707031 80.453125 109.523438 81.675781 109.402344 82.957031 L 107.972656 84.941406 L 107.972656 89.605469 L 109.402344 91.644531 C 109.523438 92.925781 109.707031 94.152344 109.933594 95.257812 L 109.421875 99.632812 L 110.585938 102.957031 L 112.121094 101.5 C 112.527344 102.140625 112.957031 102.667969 113.40625 103.015625 L 114.121094 107.097656 L 115.757812 107.097656 L 116.472656 103.015625 C 116.921875 102.667969 117.351562 102.140625 117.738281 101.5 L 119.269531 102.957031 L 120.4375 99.632812 L 119.925781 95.257812 C 120.148438 94.09375 120.332031 92.867188 120.457031 91.585938 L 121.886719 89.546875 L 121.886719 84.882812 Z M 120.4375 82.898438 "/>
</g>
<g clip-path="url(#clip18)" clip-rule="nonzero">
<path style=" stroke:none;fill-rule:nonzero;fill:rgb(36.862745%,6.666667%,56.862745%);fill-opacity:1;" d="M 153.53125 94.269531 C 152.183594 94.269531 151.082031 91.121094 151.082031 87.273438 C 151.082031 83.425781 152.183594 80.273438 153.53125 80.273438 C 154.878906 80.273438 155.984375 83.425781 155.984375 87.273438 C 155.984375 91.121094 154.878906 94.269531 153.53125 94.269531 Z M 159.050781 82.898438 C 158.925781 81.617188 158.742188 80.390625 158.519531 79.285156 L 159.027344 74.914062 L 157.863281 71.585938 L 156.332031 73.042969 C 155.921875 72.402344 155.492188 71.878906 155.042969 71.527344 L 154.351562 67.449219 L 152.714844 67.449219 L 152 71.527344 C 151.550781 71.878906 151.121094 72.402344 150.734375 73.042969 L 149.203125 71.585938 L 148.035156 74.914062 L 148.546875 79.285156 C 148.320312 80.453125 148.136719 81.675781 148.015625 82.957031 L 146.585938 84.941406 L 146.585938 89.605469 L 148.015625 91.644531 C 148.136719 92.925781 148.320312 94.152344 148.546875 95.257812 L 148.035156 99.632812 L 149.203125 102.957031 L 150.734375 101.5 C 151.140625 102.140625 151.570312 102.667969 152.019531 103.015625 L 152.734375 107.097656 L 154.371094 107.097656 L 155.085938 103.015625 C 155.535156 102.667969 155.964844 102.140625 156.351562 101.5 L 157.886719 102.957031 L 159.050781 99.632812 L 158.539062 95.257812 C 158.761719 94.09375 158.945312 92.867188 159.070312 91.585938 L 160.5 89.546875 L 160.5 84.882812 Z M 159.050781 82.898438 "/>
</g>
<g clip-path="url(#clip19)" clip-rule="nonzero">
<path style=" stroke:none;fill-rule:nonzero;fill:rgb(36.862745%,6.666667%,56.862745%);fill-opacity:1;" d="M 192.144531 94.269531 C 190.796875 94.269531 189.691406 91.121094 189.691406 87.273438 C 189.691406 83.425781 190.796875 80.273438 192.144531 80.273438 C 193.492188 80.273438 194.597656 83.425781 194.597656 87.273438 C 194.597656 91.121094 193.492188 94.269531 192.144531 94.269531 Z M 197.660156 82.898438 C 197.539062 81.617188 197.355469 80.390625 197.128906 79.285156 L 197.640625 74.914062 L 196.476562 71.585938 L 194.945312 73.042969 C 194.535156 72.402344 194.105469 71.878906 193.65625 71.527344 L 192.960938 67.449219 L 191.328125 67.449219 L 190.613281 71.527344 C 190.164062 71.878906 189.734375 72.402344 189.347656 73.042969 L 187.8125 71.585938 L 186.648438 74.914062 L 187.160156 79.285156 C 186.933594 80.453125 186.75 81.675781 186.628906 82.957031 L 185.199219 84.941406 L 185.199219 89.605469 L 186.628906 91.644531 C 186.75 92.925781 186.933594 94.152344 187.160156 95.257812 L 186.648438 99.632812 L 187.8125 102.957031 L 189.347656 101.5 C 189.753906 102.140625 190.183594 102.667969 190.632812 103.015625 L 191.347656 107.097656 L 192.980469 107.097656 L 193.699219 103.015625 C 194.148438 102.667969 194.578125 102.140625 194.964844 101.5 L 196.496094 102.957031 L 197.660156 99.632812 L 197.152344 95.257812 C 197.375 94.09375 197.558594 92.867188 197.683594 91.585938 L 199.113281 89.546875 L 199.113281 84.882812 Z M 197.660156 82.898438 "/>
</g>
<g clip-path="url(#clip20)" clip-rule="nonzero">
<path style=" stroke:none;fill-rule:nonzero;fill:rgb(36.862745%,6.666667%,56.862745%);fill-opacity:1;" d="M 230.757812 94.269531 C 229.410156 94.269531 228.304688 91.121094 228.304688 87.273438 C 228.304688 83.425781 229.410156 80.273438 230.757812 80.273438 C 232.105469 80.273438 233.210938 83.425781 233.210938 87.273438 C 233.210938 91.121094 232.105469 94.269531 230.757812 94.269531 Z M 236.273438 82.898438 C 236.152344 81.617188 235.96875 80.390625 235.746094 79.285156 L 236.253906 74.914062 L 235.089844 71.585938 L 233.558594 73.042969 C 233.148438 72.402344 232.71875 71.878906 232.269531 71.527344 L 231.574219 67.449219 L 229.941406 67.449219 L 229.226562 71.527344 C 228.777344 71.878906 228.347656 72.402344 227.960938 73.042969 L 226.425781 71.585938 L 225.261719 74.914062 L 225.773438 79.285156 C 225.546875 80.453125 225.363281 81.675781 225.242188 82.957031 L 223.8125 84.941406 L 223.8125 89.605469 L 225.242188 91.644531 C 225.363281 92.925781 225.546875 94.152344 225.773438 95.257812 L 225.261719 99.632812 L 226.425781 102.957031 L 227.960938 101.5 C 228.367188 102.140625 228.796875 102.667969 229.246094 103.015625 L 229.960938 107.097656 L 231.597656 107.097656 L 232.3125 103.015625 C 232.761719 102.667969 233.191406 102.140625 233.578125 101.5 L 235.109375 102.957031 L 236.273438 99.632812 L 235.765625 95.257812 C 235.988281 94.09375 236.171875 92.867188 236.296875 91.585938 L 237.726562 89.546875 L 237.726562 84.882812 Z M 236.273438 82.898438 "/>
</g>
<g clip-path="url(#clip21)" clip-rule="nonzero">
<path style=" stroke:none;fill-rule:nonzero;fill:rgb(36.862745%,6.666667%,56.862745%);fill-opacity:1;" d="M 269.371094 94.269531 C 268.023438 94.269531 266.917969 91.121094 266.917969 87.273438 C 266.917969 83.425781 268.023438 80.273438 269.371094 80.273438 C 270.71875 80.273438 271.824219 83.425781 271.824219 87.273438 C 271.824219 91.121094 270.71875 94.269531 269.371094 94.269531 Z M 274.886719 82.898438 C 274.765625 81.617188 274.582031 80.390625 274.355469 79.285156 L 274.867188 74.914062 L 273.703125 71.585938 L 272.167969 73.042969 C 271.761719 72.402344 271.332031 71.878906 270.882812 71.527344 L 270.1875 67.449219 L 268.554688 67.449219 L 267.839844 71.527344 C 267.390625 71.878906 266.960938 72.402344 266.570312 73.042969 L 265.039062 71.585938 L 263.875 74.914062 L 264.386719 79.285156 C 264.160156 80.453125 263.976562 81.675781 263.855469 82.957031 L 262.421875 84.941406 L 262.421875 89.605469 L 263.855469 91.644531 C 263.976562 92.925781 264.160156 94.152344 264.386719 95.257812 L 263.875 99.632812 L 265.039062 102.957031 L 266.570312 101.5 C 266.980469 102.140625 267.410156 102.667969 267.859375 103.015625 L 268.574219 107.097656 L 270.207031 107.097656 L 270.921875 103.015625 C 271.375 102.667969 271.800781 102.140625 272.191406 101.5 L 273.722656 102.957031 L 274.886719 99.632812 L 274.375 95.257812 C 274.601562 94.09375 274.785156 92.867188 274.90625 91.585938 L 276.339844 89.546875 L 276.339844 84.882812 Z M 274.886719 82.898438 "/>
</g>
<path style="fill:none;stroke-width:0.79701;stroke-linecap:butt;stroke-linejoin:miter;stroke:rgb(0%,0%,0%);stroke-opacity:1;stroke-miterlimit:10;" d="M 7.300678 0.000128824 L 16.935972 0.000128824 " transform="matrix(1.362179,0,0,-3.887195,37.703604,241.535657)"/>
<path style="fill-rule:nonzero;fill:rgb(0%,0%,0%);fill-opacity:1;stroke-width:0.79701;stroke-linecap:butt;stroke-linejoin:miter;stroke:rgb(0%,0%,0%);stroke-opacity:1;stroke-miterlimit:10;" d="M 5.4405 0.000128824 L 1.288147 1.570791 L 2.664618 0.000128824 L 1.288147 -1.570533 Z M 5.4405 0.000128824 " transform="matrix(1.362179,0,0,-3.887195,57.417188,241.535657)"/>
<path style="fill:none;stroke-width:0.79701;stroke-linecap:butt;stroke-linejoin:miter;stroke:rgb(0%,0%,0%);stroke-opacity:1;stroke-miterlimit:10;" d="M 35.647369 0.000128824 L 45.282663 0.000128824 " transform="matrix(1.362179,0,0,-3.887195,37.703604,241.535657)"/>
<path style="fill-rule:nonzero;fill:rgb(0%,0%,0%);fill-opacity:1;stroke-width:0.79701;stroke-linecap:butt;stroke-linejoin:miter;stroke:rgb(0%,0%,0%);stroke-opacity:1;stroke-miterlimit:10;" d="M 5.440374 0.000128824 L 1.288021 1.570791 L 2.664491 0.000128824 L 1.288021 -1.570533 Z M 5.440374 0.000128824 " transform="matrix(1.362179,0,0,-3.887195,96.030641,241.535657)"/>
<path style="fill:none;stroke-width:0.79701;stroke-linecap:butt;stroke-linejoin:miter;stroke:rgb(0%,0%,0%);stroke-opacity:1;stroke-miterlimit:10;" d="M 92.340751 0.000128824 L 101.978913 0.000128824 " transform="matrix(1.362179,0,0,-3.887195,37.703604,241.535657)"/>
<path style="fill-rule:nonzero;fill:rgb(0%,0%,0%);fill-opacity:1;stroke-width:0.79701;stroke-linecap:butt;stroke-linejoin:miter;stroke:rgb(0%,0%,0%);stroke-opacity:1;stroke-miterlimit:10;" d="M 5.440144 0.000128824 L 1.287791 1.570791 L 2.664262 0.000128824 L 1.287791 -1.570533 Z M 5.440144 0.000128824 " transform="matrix(1.362179,0,0,-3.887195,173.257516,241.535657)"/>
<path style="fill:none;stroke-width:0.79701;stroke-linecap:butt;stroke-linejoin:miter;stroke:rgb(0%,0%,0%);stroke-opacity:1;stroke-miterlimit:10;" d="M 120.687442 0.000128824 L 130.325604 0.000128824 " transform="matrix(1.362179,0,0,-3.887195,37.703604,241.535657)"/>
<path style="fill-rule:nonzero;fill:rgb(0%,0%,0%);fill-opacity:1;stroke-width:0.79701;stroke-linecap:butt;stroke-linejoin:miter;stroke:rgb(0%,0%,0%);stroke-opacity:1;stroke-miterlimit:10;" d="M 5.440012 0.000128824 L 1.287659 1.570791 L 2.664129 0.000128824 L 1.287659 -1.570533 Z M 5.440012 0.000128824 " transform="matrix(1.362179,0,0,-3.887195,211.870978,241.535657)"/>
<path style="fill:none;stroke-width:0.79701;stroke-linecap:butt;stroke-linejoin:miter;stroke:rgb(0%,0%,0%);stroke-opacity:1;stroke-miterlimit:10;" d="M 7.300678 19.842923 L 16.935972 19.842923 " transform="matrix(1.362179,0,0,-3.887195,37.703604,241.535657)"/>
<path style="fill-rule:nonzero;fill:rgb(0%,0%,0%);fill-opacity:1;stroke-width:0.79701;stroke-linecap:butt;stroke-linejoin:miter;stroke:rgb(0%,0%,0%);stroke-opacity:1;stroke-miterlimit:10;" d="M 5.4405 0.00025 L 1.288147 1.570912 L 2.664618 0.00025 L 1.288147 -1.570412 Z M 5.4405 0.00025 " transform="matrix(1.362179,0,0,-3.887195,57.417188,164.403316)"/>
<path style="fill:none;stroke-width:0.79701;stroke-linecap:butt;stroke-linejoin:miter;stroke:rgb(0%,0%,0%);stroke-opacity:1;stroke-miterlimit:10;" d="M 35.647369 19.842923 L 45.282663 19.842923 " transform="matrix(1.362179,0,0,-3.887195,37.703604,241.535657)"/>
<path style="fill-rule:nonzero;fill:rgb(0%,0%,0%);fill-opacity:1;stroke-width:0.79701;stroke-linecap:butt;stroke-linejoin:miter;stroke:rgb(0%,0%,0%);stroke-opacity:1;stroke-miterlimit:10;" d="M 5.440374 0.00025 L 1.288021 1.570912 L 2.664491 0.00025 L 1.288021 -1.570412 Z M 5.440374 0.00025 " transform="matrix(1.362179,0,0,-3.887195,96.030641,164.403316)"/>
<path style="fill:none;stroke-width:0.79701;stroke-linecap:butt;stroke-linejoin:miter;stroke:rgb(0%,0%,0%);stroke-opacity:1;stroke-miterlimit:10;" d="M 92.340751 19.842923 L 101.978913 19.842923 " transform="matrix(1.362179,0,0,-3.887195,37.703604,241.535657)"/>
<path style="fill-rule:nonzero;fill:rgb(0%,0%,0%);fill-opacity:1;stroke-width:0.79701;stroke-linecap:butt;stroke-linejoin:miter;stroke:rgb(0%,0%,0%);stroke-opacity:1;stroke-miterlimit:10;" d="M 5.440144 0.00025 L 1.287791 1.570912 L 2.664262 0.00025 L 1.287791 -1.570412 Z M 5.440144 0.00025 " transform="matrix(1.362179,0,0,-3.887195,173.257516,164.403316)"/>
<path style="fill:none;stroke-width:0.79701;stroke-linecap:butt;stroke-linejoin:miter;stroke:rgb(0%,0%,0%);stroke-opacity:1;stroke-miterlimit:10;" d="M 120.687442 19.842923 L 130.325604 19.842923 " transform="matrix(1.362179,0,0,-3.887195,37.703604,241.535657)"/>
<path style="fill-rule:nonzero;fill:rgb(0%,0%,0%);fill-opacity:1;stroke-width:0.79701;stroke-linecap:butt;stroke-linejoin:miter;stroke:rgb(0%,0%,0%);stroke-opacity:1;stroke-miterlimit:10;" d="M 5.440012 0.00025 L 1.287659 1.570912 L 2.664129 0.00025 L 1.287659 -1.570412 Z M 5.440012 0.00025 " transform="matrix(1.362179,0,0,-3.887195,211.870978,164.403316)"/>
<path style="fill:none;stroke-width:0.79701;stroke-linecap:butt;stroke-linejoin:miter;stroke:rgb(0%,0%,0%);stroke-opacity:1;stroke-miterlimit:10;" d="M 7.300678 39.685717 L 16.935972 39.685717 " transform="matrix(1.362179,0,0,-3.887195,37.703604,241.535657)"/>
<path style="fill-rule:nonzero;fill:rgb(0%,0%,0%);fill-opacity:1;stroke-width:0.79701;stroke-linecap:butt;stroke-linejoin:miter;stroke:rgb(0%,0%,0%);stroke-opacity:1;stroke-miterlimit:10;" d="M 5.4405 0.000366471 L 1.288147 1.571028 L 2.664618 0.000366471 L 1.288147 -1.570295 Z M 5.4405 0.000366471 " transform="matrix(1.362179,0,0,-3.887195,57.417188,87.270956)"/>
<path style="fill:none;stroke-width:0.79701;stroke-linecap:butt;stroke-linejoin:miter;stroke:rgb(0%,0%,0%);stroke-opacity:1;stroke-miterlimit:10;" d="M 35.647369 39.685717 L 45.282663 39.685717 " transform="matrix(1.362179,0,0,-3.887195,37.703604,241.535657)"/>
<path style="fill-rule:nonzero;fill:rgb(0%,0%,0%);fill-opacity:1;stroke-width:0.79701;stroke-linecap:butt;stroke-linejoin:miter;stroke:rgb(0%,0%,0%);stroke-opacity:1;stroke-miterlimit:10;" d="M 5.440374 0.000366471 L 1.288021 1.571028 L 2.664491 0.000366471 L 1.288021 -1.570295 Z M 5.440374 0.000366471 " transform="matrix(1.362179,0,0,-3.887195,96.030641,87.270956)"/>
<path style="fill:none;stroke-width:0.79701;stroke-linecap:butt;stroke-linejoin:miter;stroke:rgb(0%,0%,0%);stroke-opacity:1;stroke-miterlimit:10;" d="M 92.340751 39.685717 L 101.978913 39.685717 " transform="matrix(1.362179,0,0,-3.887195,37.703604,241.535657)"/>
<path style="fill-rule:nonzero;fill:rgb(0%,0%,0%);fill-opacity:1;stroke-width:0.79701;stroke-linecap:butt;stroke-linejoin:miter;stroke:rgb(0%,0%,0%);stroke-opacity:1;stroke-miterlimit:10;" d="M 5.440144 0.000366471 L 1.287791 1.571028 L 2.664262 0.000366471 L 1.287791 -1.570295 Z M 5.440144 0.000366471 " transform="matrix(1.362179,0,0,-3.887195,173.257516,87.270956)"/>
<path style="fill:none;stroke-width:0.79701;stroke-linecap:butt;stroke-linejoin:miter;stroke:rgb(0%,0%,0%);stroke-opacity:1;stroke-miterlimit:10;" d="M 120.687442 39.685717 L 130.325604 39.685717 " transform="matrix(1.362179,0,0,-3.887195,37.703604,241.535657)"/>
<path style="fill-rule:nonzero;fill:rgb(0%,0%,0%);fill-opacity:1;stroke-width:0.79701;stroke-linecap:butt;stroke-linejoin:miter;stroke:rgb(0%,0%,0%);stroke-opacity:1;stroke-miterlimit:10;" d="M 5.440012 0.000366471 L 1.287659 1.571028 L 2.664129 0.000366471 L 1.287659 -1.570295 Z M 5.440012 0.000366471 " transform="matrix(1.362179,0,0,-3.887195,211.870978,87.270956)"/>
<path style="fill:none;stroke-width:0.79701;stroke-linecap:butt;stroke-linejoin:miter;stroke:rgb(38.431373%,61.960784%,12.156863%);stroke-opacity:1;stroke-miterlimit:10;" d="M 63.99406 0.000128824 L 73.629354 0.000128824 " transform="matrix(1.362179,0,0,-3.887195,37.703604,241.535657)"/>
<path style="fill-rule:nonzero;fill:rgb(38.431373%,61.960784%,12.156863%);fill-opacity:1;stroke-width:0.79701;stroke-linecap:butt;stroke-linejoin:miter;stroke:rgb(38.431373%,61.960784%,12.156863%);stroke-opacity:1;stroke-miterlimit:10;" d="M 5.440253 0.000128824 L 1.2879 1.570791 L 2.664371 0.000128824 L 1.2879 -1.570533 Z M 5.440253 0.000128824 " transform="matrix(1.362179,0,0,-3.887195,134.644087,241.535657)"/>
<path style="fill:none;stroke-width:0.79701;stroke-linecap:butt;stroke-linejoin:miter;stroke:rgb(38.431373%,61.960784%,12.156863%);stroke-opacity:1;stroke-miterlimit:10;" d="M 149.034134 0.000128824 L 158.672295 0.000128824 " transform="matrix(1.362179,0,0,-3.887195,37.703604,241.535657)"/>
<path style="fill-rule:nonzero;fill:rgb(38.431373%,61.960784%,12.156863%);fill-opacity:1;stroke-width:0.79701;stroke-linecap:butt;stroke-linejoin:miter;stroke:rgb(38.431373%,61.960784%,12.156863%);stroke-opacity:1;stroke-miterlimit:10;" d="M 5.439891 0.000128824 L 1.287538 1.570791 L 2.664009 0.000128824 L 1.287538 -1.570533 Z M 5.439891 0.000128824 " transform="matrix(1.362179,0,0,-3.887195,250.484423,241.535657)"/>
<path style="fill:none;stroke-width:0.79701;stroke-linecap:butt;stroke-linejoin:miter;stroke:rgb(38.431373%,61.960784%,12.156863%);stroke-opacity:1;stroke-miterlimit:10;" d="M 63.99406 5.10905 L 74.374942 12.376501 " transform="matrix(1.362179,0,0,-3.887195,37.703604,241.535657)"/>
<path style="fill-rule:nonzero;fill:rgb(38.431373%,61.960784%,12.156863%);fill-opacity:1;stroke-width:0.79701;stroke-linecap:butt;stroke-linejoin:miter;stroke:rgb(38.431373%,61.960784%,12.156863%);stroke-opacity:1;stroke-miterlimit:10;" d="M 5.44116 -0.000817788 L 1.286719 1.570354 L 2.665313 -0.000695349 L 1.286722 -1.569966 Z M 5.44116 -0.000817788 " transform="matrix(1.115897,-2.22919,-0.781169,-3.18439,136.263522,198.919742)"/>
<path style="fill:none;stroke-width:0.79701;stroke-linecap:butt;stroke-linejoin:miter;stroke:rgb(38.431373%,61.960784%,12.156863%);stroke-opacity:1;stroke-miterlimit:10;" d="M 61.900678 7.291697 L 77.443325 29.04883 " transform="matrix(1.362179,0,0,-3.887195,37.703604,241.535657)"/>
<path style="fill-rule:nonzero;fill:rgb(38.431373%,61.960784%,12.156863%);fill-opacity:1;stroke-width:0.79701;stroke-linecap:butt;stroke-linejoin:miter;stroke:rgb(38.431373%,61.960784%,12.156863%);stroke-opacity:1;stroke-miterlimit:10;" d="M 5.439679 0.000270209 L 1.287522 1.570043 L 2.665361 -0.000869505 L 1.286965 -1.570576 Z M 5.439679 0.000270209 " transform="matrix(0.791753,-3.162856,-1.108351,-2.259393,141.244197,136.412561)"/>
<path style="fill:none;stroke-width:0.79701;stroke-linecap:butt;stroke-linejoin:miter;stroke:rgb(38.431373%,61.960784%,12.156863%);stroke-opacity:1;stroke-miterlimit:10;" d="M 63.99406 19.842923 L 73.629354 19.842923 " transform="matrix(1.362179,0,0,-3.887195,37.703604,241.535657)"/>
<path style="fill-rule:nonzero;fill:rgb(38.431373%,61.960784%,12.156863%);fill-opacity:1;stroke-width:0.79701;stroke-linecap:butt;stroke-linejoin:miter;stroke:rgb(38.431373%,61.960784%,12.156863%);stroke-opacity:1;stroke-miterlimit:10;" d="M 5.440253 0.00025 L 1.2879 1.570912 L 2.664371 0.00025 L 1.2879 -1.570412 Z M 5.440253 0.00025 " transform="matrix(1.362179,0,0,-3.887195,134.644087,164.403316)"/>
<path style="fill:none;stroke-width:0.79701;stroke-linecap:butt;stroke-linejoin:miter;stroke:rgb(38.431373%,61.960784%,12.156863%);stroke-opacity:1;stroke-miterlimit:10;" d="M 63.99406 14.732996 L 74.374942 7.465545 " transform="matrix(1.362179,0,0,-3.887195,37.703604,241.535657)"/>
<path style="fill-rule:nonzero;fill:rgb(38.431373%,61.960784%,12.156863%);fill-opacity:1;stroke-width:0.79701;stroke-linecap:butt;stroke-linejoin:miter;stroke:rgb(38.431373%,61.960784%,12.156863%);stroke-opacity:1;stroke-miterlimit:10;" d="M 5.441509 0.000319339 L 1.286494 1.570291 L 2.665085 0.00102015 L 1.287068 -1.570853 Z M 5.441509 0.000319339 " transform="matrix(1.115897,2.22919,0.781169,-3.18439,136.263522,207.019299)"/>
<path style="fill:none;stroke-width:0.79701;stroke-linecap:butt;stroke-linejoin:miter;stroke:rgb(38.431373%,61.960784%,12.156863%);stroke-opacity:1;stroke-miterlimit:10;" d="M 63.99406 24.951845 L 74.374942 32.219295 " transform="matrix(1.362179,0,0,-3.887195,37.703604,241.535657)"/>
<path style="fill-rule:nonzero;fill:rgb(38.431373%,61.960784%,12.156863%);fill-opacity:1;stroke-width:0.79701;stroke-linecap:butt;stroke-linejoin:miter;stroke:rgb(38.431373%,61.960784%,12.156863%);stroke-opacity:1;stroke-miterlimit:10;" d="M 5.441215 -0.000738755 L 1.286774 1.570433 L 2.665368 -0.000616317 L 1.286777 -1.569887 Z M 5.441215 -0.000738755 " transform="matrix(1.115897,-2.22919,-0.781169,-3.18439,136.263522,121.787305)"/>
<path style="fill:none;stroke-width:0.79701;stroke-linecap:butt;stroke-linejoin:miter;stroke:rgb(38.431373%,61.960784%,12.156863%);stroke-opacity:1;stroke-miterlimit:10;" d="M 63.99406 39.685717 L 73.629354 39.685717 " transform="matrix(1.362179,0,0,-3.887195,37.703604,241.535657)"/>
<path style="fill-rule:nonzero;fill:rgb(38.431373%,61.960784%,12.156863%);fill-opacity:1;stroke-width:0.79701;stroke-linecap:butt;stroke-linejoin:miter;stroke:rgb(38.431373%,61.960784%,12.156863%);stroke-opacity:1;stroke-miterlimit:10;" d="M 5.440253 0.000366471 L 1.2879 1.571028 L 2.664371 0.000366471 L 1.2879 -1.570295 Z M 5.440253 0.000366471 " transform="matrix(1.362179,0,0,-3.887195,134.644087,87.270956)"/>
<path style="fill:none;stroke-width:0.79701;stroke-linecap:butt;stroke-linejoin:miter;stroke:rgb(38.431373%,61.960784%,12.156863%);stroke-opacity:1;stroke-miterlimit:10;" d="M 63.99406 34.575791 L 74.374942 27.30834 " transform="matrix(1.362179,0,0,-3.887195,37.703604,241.535657)"/>
<path style="fill-rule:nonzero;fill:rgb(38.431373%,61.960784%,12.156863%);fill-opacity:1;stroke-width:0.79701;stroke-linecap:butt;stroke-linejoin:miter;stroke:rgb(38.431373%,61.960784%,12.156863%);stroke-opacity:1;stroke-miterlimit:10;" d="M 5.441438 0.000420539 L 1.286424 1.570392 L 2.665591 0.0002981 L 1.286997 -1.570752 Z M 5.441438 0.000420539 " transform="matrix(1.115897,2.22919,0.781169,-3.18439,136.263522,129.886966)"/>
<path style="fill:none;stroke-width:0.79701;stroke-linecap:butt;stroke-linejoin:miter;stroke:rgb(38.431373%,61.960784%,12.156863%);stroke-opacity:1;stroke-miterlimit:10;" d="M 61.900678 32.393144 L 77.443325 10.636011 " transform="matrix(1.362179,0,0,-3.887195,37.703604,241.535657)"/>
<path style="fill-rule:nonzero;fill:rgb(38.431373%,61.960784%,12.156863%);fill-opacity:1;stroke-width:0.79701;stroke-linecap:butt;stroke-linejoin:miter;stroke:rgb(38.431373%,61.960784%,12.156863%);stroke-opacity:1;stroke-miterlimit:10;" d="M 5.440077 -0.000554139 L 1.287363 1.570292 L 2.66494 0.00116973 L 1.287102 -1.569743 Z M 5.440077 -0.000554139 " transform="matrix(0.791753,3.162856,1.108351,-2.259393,141.244197,192.394134)"/>
<path style="fill:none;stroke-width:0.79701;stroke-linecap:butt;stroke-linejoin:miter;stroke:rgb(38.431373%,61.960784%,12.156863%);stroke-opacity:1;stroke-miterlimit:10;" d="M 149.034134 19.842923 L 158.672295 19.842923 " transform="matrix(1.362179,0,0,-3.887195,37.703604,241.535657)"/>
<path style="fill-rule:nonzero;fill:rgb(38.431373%,61.960784%,12.156863%);fill-opacity:1;stroke-width:0.79701;stroke-linecap:butt;stroke-linejoin:miter;stroke:rgb(38.431373%,61.960784%,12.156863%);stroke-opacity:1;stroke-miterlimit:10;" d="M 5.439891 0.00025 L 1.287538 1.570912 L 2.664009 0.00025 L 1.287538 -1.570412 Z M 5.439891 0.00025 " transform="matrix(1.362179,0,0,-3.887195,250.484423,164.403316)"/>
<path style="fill:none;stroke-width:0.79701;stroke-linecap:butt;stroke-linejoin:miter;stroke:rgb(38.431373%,61.960784%,12.156863%);stroke-opacity:1;stroke-miterlimit:10;" d="M 149.034134 5.10905 L 159.415016 12.376501 " transform="matrix(1.362179,0,0,-3.887195,37.703604,241.535657)"/>
<path style="fill-rule:nonzero;fill:rgb(38.431373%,61.960784%,12.156863%);fill-opacity:1;stroke-width:0.79701;stroke-linecap:butt;stroke-linejoin:miter;stroke:rgb(38.431373%,61.960784%,12.156863%);stroke-opacity:1;stroke-miterlimit:10;" d="M 5.440871 -0.000615715 L 1.28643 1.570556 L 2.665024 -0.000493276 L 1.286433 -1.569764 Z M 5.440871 -0.000615715 " transform="matrix(1.115897,-2.22919,-0.781169,-3.18439,252.103846,198.919742)"/>
<path style="fill:none;stroke-width:0.79701;stroke-linecap:butt;stroke-linejoin:miter;stroke:rgb(38.431373%,61.960784%,12.156863%);stroke-opacity:1;stroke-miterlimit:10;" d="M 146.940751 7.291697 L 162.483398 29.04883 " transform="matrix(1.362179,0,0,-3.887195,37.703604,241.535657)"/>
<path style="fill-rule:nonzero;fill:rgb(38.431373%,61.960784%,12.156863%);fill-opacity:1;stroke-width:0.79701;stroke-linecap:butt;stroke-linejoin:miter;stroke:rgb(38.431373%,61.960784%,12.156863%);stroke-opacity:1;stroke-miterlimit:10;" d="M 5.439468 0.000565555 L 1.287311 1.570339 L 2.66515 -0.00057416 L 1.286754 -1.570281 Z M 5.439468 0.000565555 " transform="matrix(0.791753,-3.162856,-1.108351,-2.259393,257.084535,136.412561)"/>
<path style="fill:none;stroke-width:0.79701;stroke-linecap:butt;stroke-linejoin:miter;stroke:rgb(38.431373%,61.960784%,12.156863%);stroke-opacity:1;stroke-miterlimit:10;" d="M 149.034134 14.732996 L 159.415016 7.465545 " transform="matrix(1.362179,0,0,-3.887195,37.703604,241.535657)"/>
<path style="fill-rule:nonzero;fill:rgb(38.431373%,61.960784%,12.156863%);fill-opacity:1;stroke-width:0.79701;stroke-linecap:butt;stroke-linejoin:miter;stroke:rgb(38.431373%,61.960784%,12.156863%);stroke-opacity:1;stroke-miterlimit:10;" d="M 5.44122 0.000117266 L 1.286206 1.570089 L 2.664797 0.000818079 L 1.286779 -1.571055 Z M 5.44122 0.000117266 " transform="matrix(1.115897,2.22919,0.781169,-3.18439,252.103846,207.019299)"/>
<path style="fill:none;stroke-width:0.79701;stroke-linecap:butt;stroke-linejoin:miter;stroke:rgb(38.431373%,61.960784%,12.156863%);stroke-opacity:1;stroke-miterlimit:10;" d="M 149.034134 24.951845 L 159.415016 32.219295 " transform="matrix(1.362179,0,0,-3.887195,37.703604,241.535657)"/>
<path style="fill-rule:nonzero;fill:rgb(38.431373%,61.960784%,12.156863%);fill-opacity:1;stroke-width:0.79701;stroke-linecap:butt;stroke-linejoin:miter;stroke:rgb(38.431373%,61.960784%,12.156863%);stroke-opacity:1;stroke-miterlimit:10;" d="M 5.440926 -0.000536683 L 1.286485 1.570635 L 2.665079 -0.000414244 L 1.286488 -1.569685 Z M 5.440926 -0.000536683 " transform="matrix(1.115897,-2.22919,-0.781169,-3.18439,252.103846,121.787305)"/>
<path style="fill:none;stroke-width:0.79701;stroke-linecap:butt;stroke-linejoin:miter;stroke:rgb(38.431373%,61.960784%,12.156863%);stroke-opacity:1;stroke-miterlimit:10;" d="M 149.034134 39.685717 L 158.672295 39.685717 " transform="matrix(1.362179,0,0,-3.887195,37.703604,241.535657)"/>
<path style="fill-rule:nonzero;fill:rgb(38.431373%,61.960784%,12.156863%);fill-opacity:1;stroke-width:0.79701;stroke-linecap:butt;stroke-linejoin:miter;stroke:rgb(38.431373%,61.960784%,12.156863%);stroke-opacity:1;stroke-miterlimit:10;" d="M 5.439891 0.000366471 L 1.287538 1.571028 L 2.664009 0.000366471 L 1.287538 -1.570295 Z M 5.439891 0.000366471 " transform="matrix(1.362179,0,0,-3.887195,250.484423,87.270956)"/>
<path style="fill:none;stroke-width:0.79701;stroke-linecap:butt;stroke-linejoin:miter;stroke:rgb(38.431373%,61.960784%,12.156863%);stroke-opacity:1;stroke-miterlimit:10;" d="M 149.034134 34.575791 L 159.415016 27.30834 " transform="matrix(1.362179,0,0,-3.887195,37.703604,241.535657)"/>
<path style="fill-rule:nonzero;fill:rgb(38.431373%,61.960784%,12.156863%);fill-opacity:1;stroke-width:0.79701;stroke-linecap:butt;stroke-linejoin:miter;stroke:rgb(38.431373%,61.960784%,12.156863%);stroke-opacity:1;stroke-miterlimit:10;" d="M 5.441149 0.000218466 L 1.286135 1.57019 L 2.665302 0.0000960275 L 1.286708 -1.570954 Z M 5.441149 0.000218466 " transform="matrix(1.115897,2.22919,0.781169,-3.18439,252.103846,129.886966)"/>
<path style="fill:none;stroke-width:0.79701;stroke-linecap:butt;stroke-linejoin:miter;stroke:rgb(38.431373%,61.960784%,12.156863%);stroke-opacity:1;stroke-miterlimit:10;" d="M 146.940751 32.393144 L 162.483398 10.636011 " transform="matrix(1.362179,0,0,-3.887195,37.703604,241.535657)"/>
<path style="fill-rule:nonzero;fill:rgb(38.431373%,61.960784%,12.156863%);fill-opacity:1;stroke-width:0.79701;stroke-linecap:butt;stroke-linejoin:miter;stroke:rgb(38.431373%,61.960784%,12.156863%);stroke-opacity:1;stroke-miterlimit:10;" d="M 5.439866 -0.000849484 L 1.287152 1.569997 L 2.664729 0.000874388 L 1.286891 -1.570039 Z M 5.439866 -0.000849484 " transform="matrix(0.791753,3.162856,1.108351,-2.259393,257.084535,192.394134)"/>
</g>
</svg>
