<?xml version="1.0" encoding="UTF-8"?>
<svg xmlns="http://www.w3.org/2000/svg" xmlns:xlink="http://www.w3.org/1999/xlink" width="250px" height="250px" viewBox="0 0 250 250" version="1.1">
<defs>
<clipPath id="clip1">
  <path d="M 56.234375 185.554688 L 91.472656 185.554688 L 91.472656 230.117188 L 56.234375 230.117188 Z M 56.234375 185.554688 "/>
</clipPath>
<clipPath id="clip2">
  <path d="M 154.023438 185.554688 L 189.261719 185.554688 L 189.261719 230.117188 L 154.023438 230.117188 Z M 154.023438 185.554688 "/>
</clipPath>
<clipPath id="clip3">
  <path d="M 56.234375 98.867188 L 91.472656 98.867188 L 91.472656 143.429688 L 56.234375 143.429688 Z M 56.234375 98.867188 "/>
</clipPath>
<clipPath id="clip4">
  <path d="M 154.023438 98.867188 L 189.261719 98.867188 L 189.261719 143.429688 L 154.023438 143.429688 Z M 154.023438 98.867188 "/>
</clipPath>
<clipPath id="clip5">
  <path d="M 56.234375 12.179688 L 91.472656 12.179688 L 91.472656 56.742188 L 56.234375 56.742188 Z M 56.234375 12.179688 "/>
</clipPath>
<clipPath id="clip6">
  <path d="M 154.023438 12.179688 L 189.261719 12.179688 L 189.261719 56.742188 L 154.023438 56.742188 Z M 154.023438 12.179688 "/>
</clipPath>
</defs>
<g id="surface1">
<path style=" stroke:none;fill-rule:nonzero;fill:rgb(100%,100%,100%);fill-opacity:1;" d="M 0 1.644531 L 250 1.644531 L 250 248.355469 L 0 248.355469 Z M 0 1.644531 "/>
<g clip-path="url(#clip1)" clip-rule="nonzero">
<path style=" stroke:none;fill-rule:nonzero;fill:rgb(36.862745%,6.666667%,56.862745%);fill-opacity:1;" d="M 73.828125 215.703125 C 70.414062 215.703125 67.617188 212.160156 67.617188 207.839844 C 67.617188 203.511719 70.414062 199.972656 73.828125 199.972656 C 77.242188 199.972656 80.035156 203.511719 80.035156 207.839844 C 80.035156 212.160156 77.242188 215.703125 73.828125 215.703125 Z M 87.800781 202.921875 C 87.488281 201.484375 87.023438 200.105469 86.453125 198.859375 L 87.75 193.945312 L 84.796875 190.207031 L 80.917969 191.847656 C 79.882812 191.125 78.796875 190.535156 77.660156 190.140625 L 75.898438 185.554688 L 71.757812 185.554688 L 69.945312 190.140625 C 68.808594 190.535156 67.71875 191.125 66.742188 191.847656 L 62.859375 190.207031 L 59.90625 193.945312 L 61.203125 198.859375 C 60.632812 200.171875 60.167969 201.546875 59.855469 202.988281 L 56.234375 205.214844 L 56.234375 210.457031 L 59.855469 212.75 C 60.167969 214.191406 60.632812 215.574219 61.203125 216.8125 L 59.90625 221.730469 L 62.859375 225.464844 L 66.742188 223.828125 C 67.773438 224.546875 68.859375 225.136719 69.996094 225.53125 L 71.808594 230.117188 L 75.949219 230.117188 L 77.757812 225.53125 C 78.898438 225.136719 79.988281 224.546875 80.972656 223.828125 L 84.851562 225.464844 L 87.800781 221.730469 L 86.507812 216.8125 C 87.074219 215.503906 87.539062 214.128906 87.851562 212.6875 L 91.472656 210.390625 L 91.472656 205.152344 Z M 87.800781 202.921875 "/>
</g>
<g clip-path="url(#clip2)" clip-rule="nonzero">
<path style=" stroke:none;fill-rule:nonzero;fill:rgb(36.862745%,6.666667%,56.862745%);fill-opacity:1;" d="M 171.613281 215.703125 C 168.203125 215.703125 165.40625 212.160156 165.40625 207.839844 C 165.40625 203.511719 168.203125 199.972656 171.613281 199.972656 C 175.03125 199.972656 177.824219 203.511719 177.824219 207.839844 C 177.824219 212.160156 175.03125 215.703125 171.613281 215.703125 Z M 185.589844 202.921875 C 185.277344 201.484375 184.8125 200.105469 184.242188 198.859375 L 185.539062 193.945312 L 182.585938 190.207031 L 178.703125 191.847656 C 177.671875 191.125 176.585938 190.535156 175.445312 190.140625 L 173.6875 185.554688 L 169.546875 185.554688 L 167.734375 190.140625 C 166.597656 190.535156 165.507812 191.125 164.527344 191.847656 L 160.648438 190.207031 L 157.695312 193.945312 L 158.988281 198.859375 C 158.421875 200.171875 157.957031 201.546875 157.644531 202.988281 L 154.023438 205.214844 L 154.023438 210.457031 L 157.644531 212.75 C 157.957031 214.191406 158.421875 215.574219 158.988281 216.8125 L 157.695312 221.730469 L 160.648438 225.464844 L 164.527344 223.828125 C 165.5625 224.546875 166.648438 225.136719 167.785156 225.53125 L 169.597656 230.117188 L 173.738281 230.117188 L 175.546875 225.53125 C 176.6875 225.136719 177.777344 224.546875 178.757812 223.828125 L 182.640625 225.464844 L 185.589844 221.730469 L 184.292969 216.8125 C 184.863281 215.503906 185.328125 214.128906 185.640625 212.6875 L 189.261719 210.390625 L 189.261719 205.152344 Z M 185.589844 202.921875 "/>
</g>
<g clip-path="url(#clip3)" clip-rule="nonzero">
<path style=" stroke:none;fill-rule:nonzero;fill:rgb(36.862745%,6.666667%,56.862745%);fill-opacity:1;" d="M 73.828125 129.007812 C 70.414062 129.007812 67.617188 125.472656 67.617188 121.144531 C 67.617188 116.824219 70.414062 113.28125 73.828125 113.28125 C 77.242188 113.28125 80.035156 116.824219 80.035156 121.144531 C 80.035156 125.472656 77.242188 129.007812 73.828125 129.007812 Z M 87.800781 116.234375 C 87.488281 114.792969 87.023438 113.410156 86.453125 112.171875 L 87.75 107.253906 L 84.796875 103.519531 L 80.917969 105.15625 C 79.882812 104.4375 78.796875 103.84375 77.660156 103.453125 L 75.898438 98.867188 L 71.757812 98.867188 L 69.945312 103.453125 C 68.808594 103.84375 67.71875 104.4375 66.742188 105.15625 L 62.859375 103.519531 L 59.90625 107.253906 L 61.203125 112.171875 C 60.632812 113.480469 60.167969 114.855469 59.855469 116.296875 L 56.234375 118.527344 L 56.234375 123.769531 L 59.855469 126.0625 C 60.167969 127.5 60.632812 128.878906 61.203125 130.125 L 59.90625 135.035156 L 62.859375 138.777344 L 66.742188 137.136719 C 67.773438 137.859375 68.859375 138.445312 69.996094 138.839844 L 71.808594 143.429688 L 75.949219 143.429688 L 77.757812 138.839844 C 78.898438 138.445312 79.988281 137.859375 80.972656 137.136719 L 84.851562 138.777344 L 87.800781 135.035156 L 86.507812 130.125 C 87.074219 128.808594 87.539062 127.4375 87.851562 125.996094 L 91.472656 123.703125 L 91.472656 118.460938 Z M 87.800781 116.234375 "/>
</g>
<g clip-path="url(#clip4)" clip-rule="nonzero">
<path style=" stroke:none;fill-rule:nonzero;fill:rgb(36.862745%,6.666667%,56.862745%);fill-opacity:1;" d="M 171.613281 129.007812 C 168.203125 129.007812 165.40625 125.472656 165.40625 121.144531 C 165.40625 116.824219 168.203125 113.28125 171.613281 113.28125 C 175.03125 113.28125 177.824219 116.824219 177.824219 121.144531 C 177.824219 125.472656 175.03125 129.007812 171.613281 129.007812 Z M 185.589844 116.234375 C 185.277344 114.792969 184.8125 113.410156 184.242188 112.171875 L 185.539062 107.253906 L 182.585938 103.519531 L 178.703125 105.15625 C 177.671875 104.4375 176.585938 103.84375 175.445312 103.453125 L 173.6875 98.867188 L 169.546875 98.867188 L 167.734375 103.453125 C 166.597656 103.84375 165.507812 104.4375 164.527344 105.15625 L 160.648438 103.519531 L 157.695312 107.253906 L 158.988281 112.171875 C 158.421875 113.480469 157.957031 114.855469 157.644531 116.296875 L 154.023438 118.527344 L 154.023438 123.769531 L 157.644531 126.0625 C 157.957031 127.5 158.421875 128.878906 158.988281 130.125 L 157.695312 135.035156 L 160.648438 138.777344 L 164.527344 137.136719 C 165.5625 137.859375 166.648438 138.445312 167.785156 138.839844 L 169.597656 143.429688 L 173.738281 143.429688 L 175.546875 138.839844 C 176.6875 138.445312 177.777344 137.859375 178.757812 137.136719 L 182.640625 138.777344 L 185.589844 135.035156 L 184.292969 130.125 C 184.863281 128.808594 185.328125 127.4375 185.640625 125.996094 L 189.261719 123.703125 L 189.261719 118.460938 Z M 185.589844 116.234375 "/>
</g>
<g clip-path="url(#clip5)" clip-rule="nonzero">
<path style=" stroke:none;fill-rule:nonzero;fill:rgb(36.862745%,6.666667%,56.862745%);fill-opacity:1;" d="M 73.828125 42.324219 C 70.414062 42.324219 67.617188 38.785156 67.617188 34.460938 C 67.617188 30.136719 70.414062 26.59375 73.828125 26.59375 C 77.242188 26.59375 80.035156 30.136719 80.035156 34.460938 C 80.035156 38.785156 77.242188 42.324219 73.828125 42.324219 Z M 87.800781 29.542969 C 87.488281 28.105469 87.023438 26.726562 86.453125 25.484375 L 87.75 20.570312 L 84.796875 16.832031 L 80.917969 18.472656 C 79.882812 17.75 78.796875 17.15625 77.660156 16.765625 L 75.898438 12.179688 L 71.757812 12.179688 L 69.945312 16.765625 C 68.808594 17.15625 67.71875 17.75 66.742188 18.472656 L 62.859375 16.832031 L 59.90625 20.570312 L 61.203125 25.484375 C 60.632812 26.792969 60.167969 28.167969 59.855469 29.609375 L 56.234375 31.835938 L 56.234375 37.082031 L 59.855469 39.375 C 60.167969 40.816406 60.632812 42.195312 61.203125 43.4375 L 59.90625 48.351562 L 62.859375 52.085938 L 66.742188 50.453125 C 67.773438 51.171875 68.859375 51.761719 69.996094 52.152344 L 71.808594 56.742188 L 75.949219 56.742188 L 77.757812 52.152344 C 78.898438 51.761719 79.988281 51.171875 80.972656 50.453125 L 84.851562 52.085938 L 87.800781 48.351562 L 86.507812 43.4375 C 87.074219 42.125 87.539062 40.75 87.851562 39.3125 L 91.472656 37.015625 L 91.472656 31.777344 Z M 87.800781 29.542969 "/>
</g>
<g clip-path="url(#clip6)" clip-rule="nonzero">
<path style=" stroke:none;fill-rule:nonzero;fill:rgb(36.862745%,6.666667%,56.862745%);fill-opacity:1;" d="M 171.613281 42.324219 C 168.203125 42.324219 165.40625 38.785156 165.40625 34.460938 C 165.40625 30.136719 168.203125 26.59375 171.613281 26.59375 C 175.03125 26.59375 177.824219 30.136719 177.824219 34.460938 C 177.824219 38.785156 175.03125 42.324219 171.613281 42.324219 Z M 185.589844 29.542969 C 185.277344 28.105469 184.8125 26.726562 184.242188 25.484375 L 185.539062 20.570312 L 182.585938 16.832031 L 178.703125 18.472656 C 177.671875 17.75 176.585938 17.15625 175.445312 16.765625 L 173.6875 12.179688 L 169.546875 12.179688 L 167.734375 16.765625 C 166.597656 17.15625 165.507812 17.75 164.527344 18.472656 L 160.648438 16.832031 L 157.695312 20.570312 L 158.988281 25.484375 C 158.421875 26.792969 157.957031 28.167969 157.644531 29.609375 L 154.023438 31.835938 L 154.023438 37.082031 L 157.644531 39.375 C 157.957031 40.816406 158.421875 42.195312 158.988281 43.4375 L 157.695312 48.351562 L 160.648438 52.085938 L 164.527344 50.453125 C 165.5625 51.171875 166.648438 51.761719 167.785156 52.152344 L 169.597656 56.742188 L 173.738281 56.742188 L 175.546875 52.152344 C 176.6875 51.761719 177.777344 51.171875 178.757812 50.453125 L 182.640625 52.085938 L 185.589844 48.351562 L 184.292969 43.4375 C 184.863281 42.125 185.328125 40.75 185.640625 39.3125 L 189.261719 37.015625 L 189.261719 31.777344 Z M 185.589844 29.542969 "/>
</g>
<path style="fill:none;stroke-width:0.79701;stroke-linecap:butt;stroke-linejoin:miter;stroke:rgb(0%,0%,0%);stroke-opacity:1;stroke-miterlimit:10;" d="M 35.645825 -0.000603425 L 45.283282 -0.000603425 " transform="matrix(3.449675,0,0,-4.368832,-121.716518,207.837207)"/>
<path style="fill-rule:nonzero;fill:rgb(0%,0%,0%);fill-opacity:1;stroke-width:0.79701;stroke-linecap:butt;stroke-linejoin:miter;stroke:rgb(0%,0%,0%);stroke-opacity:1;stroke-miterlimit:10;" d="M 5.440194 -0.000603425 L 1.286723 1.570361 L 2.663664 -0.000603425 L 1.286723 -1.570674 Z M 5.440194 -0.000603425 " transform="matrix(3.449675,0,0,-4.368832,25.994817,207.837207)"/>
<path style="fill:none;stroke-width:0.79701;stroke-linecap:butt;stroke-linejoin:miter;stroke:rgb(0%,0%,0%);stroke-opacity:1;stroke-miterlimit:10;" d="M 92.339343 -0.000603425 L 101.977931 -0.000603425 " transform="matrix(3.449675,0,0,-4.368832,-121.716518,207.837207)"/>
<path style="fill-rule:nonzero;fill:rgb(0%,0%,0%);fill-opacity:1;stroke-width:0.79701;stroke-linecap:butt;stroke-linejoin:miter;stroke:rgb(0%,0%,0%);stroke-opacity:1;stroke-miterlimit:10;" d="M 5.440092 -0.000603425 L 1.287754 1.570361 L 2.664695 -0.000603425 L 1.287754 -1.570674 Z M 5.440092 -0.000603425 " transform="matrix(3.449675,0,0,-4.368832,221.569387,207.837207)"/>
<path style="fill:none;stroke-width:0.79701;stroke-linecap:butt;stroke-linejoin:miter;stroke:rgb(0%,0%,0%);stroke-opacity:1;stroke-miterlimit:10;" d="M 35.645825 19.84255 L 45.283282 19.84255 " transform="matrix(3.449675,0,0,-4.368832,-121.716518,207.837207)"/>
<path style="fill-rule:nonzero;fill:rgb(0%,0%,0%);fill-opacity:1;stroke-width:0.79701;stroke-linecap:butt;stroke-linejoin:miter;stroke:rgb(0%,0%,0%);stroke-opacity:1;stroke-miterlimit:10;" d="M 5.440194 -0.000122472 L 1.286723 1.570842 L 2.663664 -0.000122472 L 1.286723 -1.570193 Z M 5.440194 -0.000122472 " transform="matrix(3.449675,0,0,-4.368832,25.994817,121.147902)"/>
<path style="fill:none;stroke-width:0.79701;stroke-linecap:butt;stroke-linejoin:miter;stroke:rgb(0%,0%,0%);stroke-opacity:1;stroke-miterlimit:10;" d="M 92.339343 19.84255 L 101.977931 19.84255 " transform="matrix(3.449675,0,0,-4.368832,-121.716518,207.837207)"/>
<path style="fill-rule:nonzero;fill:rgb(0%,0%,0%);fill-opacity:1;stroke-width:0.79701;stroke-linecap:butt;stroke-linejoin:miter;stroke:rgb(0%,0%,0%);stroke-opacity:1;stroke-miterlimit:10;" d="M 5.440092 -0.000122472 L 1.287754 1.570842 L 2.664695 -0.000122472 L 1.287754 -1.570193 Z M 5.440092 -0.000122472 " transform="matrix(3.449675,0,0,-4.368832,221.569387,121.147902)"/>
<path style="fill:none;stroke-width:0.79701;stroke-linecap:butt;stroke-linejoin:miter;stroke:rgb(0%,0%,0%);stroke-opacity:1;stroke-miterlimit:10;" d="M 35.645825 39.684808 L 45.283282 39.684808 " transform="matrix(3.449675,0,0,-4.368832,-121.716518,207.837207)"/>
<path style="fill-rule:nonzero;fill:rgb(0%,0%,0%);fill-opacity:1;stroke-width:0.79701;stroke-linecap:butt;stroke-linejoin:miter;stroke:rgb(0%,0%,0%);stroke-opacity:1;stroke-miterlimit:10;" d="M 5.440194 -0.000543023 L 1.286723 1.570422 L 2.663664 -0.000543023 L 1.286723 -1.570614 Z M 5.440194 -0.000543023 " transform="matrix(3.449675,0,0,-4.368832,25.994817,34.458565)"/>
<path style="fill:none;stroke-width:0.79701;stroke-linecap:butt;stroke-linejoin:miter;stroke:rgb(0%,0%,0%);stroke-opacity:1;stroke-miterlimit:10;" d="M 92.339343 39.684808 L 101.977931 39.684808 " transform="matrix(3.449675,0,0,-4.368832,-121.716518,207.837207)"/>
<path style="fill-rule:nonzero;fill:rgb(0%,0%,0%);fill-opacity:1;stroke-width:0.79701;stroke-linecap:butt;stroke-linejoin:miter;stroke:rgb(0%,0%,0%);stroke-opacity:1;stroke-miterlimit:10;" d="M 5.440092 -0.000543023 L 1.287754 1.570422 L 2.664695 -0.000543023 L 1.287754 -1.570614 Z M 5.440092 -0.000543023 " transform="matrix(3.449675,0,0,-4.368832,221.569387,34.458565)"/>
<path style="fill:none;stroke-width:0.79701;stroke-linecap:butt;stroke-linejoin:miter;stroke:rgb(38.431373%,61.960784%,12.156863%);stroke-opacity:1;stroke-miterlimit:10;" d="M 63.99315 -0.000603425 L 73.630606 -0.000603425 " transform="matrix(3.449675,0,0,-4.368832,-121.716518,207.837207)"/>
<path style="fill-rule:nonzero;fill:rgb(38.431373%,61.960784%,12.156863%);fill-opacity:1;stroke-width:0.79701;stroke-linecap:butt;stroke-linejoin:miter;stroke:rgb(38.431373%,61.960784%,12.156863%);stroke-opacity:1;stroke-miterlimit:10;" d="M 5.440713 -0.000603425 L 1.287242 1.570361 L 2.664183 -0.000603425 L 1.287242 -1.570674 Z M 5.440713 -0.000603425 " transform="matrix(3.449675,0,0,-4.368832,123.78209,207.837207)"/>
<path style="fill:none;stroke-width:0.79701;stroke-linecap:butt;stroke-linejoin:miter;stroke:rgb(38.431373%,61.960784%,12.156863%);stroke-opacity:1;stroke-miterlimit:10;" d="M 63.99315 5.109279 L 74.37343 12.376667 " transform="matrix(3.449675,0,0,-4.368832,-121.716518,207.837207)"/>
<path style="fill-rule:nonzero;fill:rgb(38.431373%,61.960784%,12.156863%);fill-opacity:1;stroke-width:0.79701;stroke-linecap:butt;stroke-linejoin:miter;stroke:rgb(38.431373%,61.960784%,12.156863%);stroke-opacity:1;stroke-miterlimit:10;" d="M 5.440192 -0.000358934 L 1.286923 1.570052 L 2.663781 0.000445631 L 1.287591 -1.570523 Z M 5.440192 -0.000358934 " transform="matrix(2.825974,-2.505394,-1.978285,-3.578947,127.883263,159.941041)"/>
<path style="fill:none;stroke-width:0.79701;stroke-linecap:butt;stroke-linejoin:miter;stroke:rgb(38.431373%,61.960784%,12.156863%);stroke-opacity:1;stroke-miterlimit:10;" d="M 61.900562 7.29182 L 77.444371 29.049279 " transform="matrix(3.449675,0,0,-4.368832,-121.716518,207.837207)"/>
<path style="fill-rule:nonzero;fill:rgb(38.431373%,61.960784%,12.156863%);fill-opacity:1;stroke-width:0.79701;stroke-linecap:butt;stroke-linejoin:miter;stroke:rgb(38.431373%,61.960784%,12.156863%);stroke-opacity:1;stroke-miterlimit:10;" d="M 5.440975 0.0000218338 L 1.287006 1.570886 L 2.664347 -0.000328175 L 1.28758 -1.571113 Z M 5.440975 0.0000218338 " transform="matrix(2.00509,-3.554745,-2.806863,-2.53934,140.496668,89.688991)"/>
<path style="fill:none;stroke-width:0.79701;stroke-linecap:butt;stroke-linejoin:miter;stroke:rgb(38.431373%,61.960784%,12.156863%);stroke-opacity:1;stroke-miterlimit:10;" d="M 63.99315 19.84255 L 73.630606 19.84255 " transform="matrix(3.449675,0,0,-4.368832,-121.716518,207.837207)"/>
<path style="fill-rule:nonzero;fill:rgb(38.431373%,61.960784%,12.156863%);fill-opacity:1;stroke-width:0.79701;stroke-linecap:butt;stroke-linejoin:miter;stroke:rgb(38.431373%,61.960784%,12.156863%);stroke-opacity:1;stroke-miterlimit:10;" d="M 5.440713 -0.000122472 L 1.287242 1.570842 L 2.664183 -0.000122472 L 1.287242 -1.570193 Z M 5.440713 -0.000122472 " transform="matrix(3.449675,0,0,-4.368832,123.78209,121.147902)"/>
<path style="fill:none;stroke-width:0.79701;stroke-linecap:butt;stroke-linejoin:miter;stroke:rgb(38.431373%,61.960784%,12.156863%);stroke-opacity:1;stroke-miterlimit:10;" d="M 63.99315 14.733561 L 74.37343 7.466173 " transform="matrix(3.449675,0,0,-4.368832,-121.716518,207.837207)"/>
<path style="fill-rule:nonzero;fill:rgb(38.431373%,61.960784%,12.156863%);fill-opacity:1;stroke-width:0.79701;stroke-linecap:butt;stroke-linejoin:miter;stroke:rgb(38.431373%,61.960784%,12.156863%);stroke-opacity:1;stroke-miterlimit:10;" d="M 5.440597 -0.000220326 L 1.287484 1.570677 L 2.663674 -0.000292398 L 1.287329 -1.570632 Z M 5.440597 -0.000220326 " transform="matrix(2.825974,2.505394,1.978285,-3.578947,127.883263,169.044151)"/>
<path style="fill:none;stroke-width:0.79701;stroke-linecap:butt;stroke-linejoin:miter;stroke:rgb(38.431373%,61.960784%,12.156863%);stroke-opacity:1;stroke-miterlimit:10;" d="M 63.99315 24.952432 L 74.37343 32.21982 " transform="matrix(3.449675,0,0,-4.368832,-121.716518,207.837207)"/>
<path style="fill-rule:nonzero;fill:rgb(38.431373%,61.960784%,12.156863%);fill-opacity:1;stroke-width:0.79701;stroke-linecap:butt;stroke-linejoin:miter;stroke:rgb(38.431373%,61.960784%,12.156863%);stroke-opacity:1;stroke-miterlimit:10;" d="M 5.440451 0.0000110699 L 1.287182 1.570422 L 2.66404 0.000815636 L 1.287338 -1.570886 Z M 5.440451 0.0000110699 " transform="matrix(2.825974,-2.505394,-1.978285,-3.578947,127.883263,73.251608)"/>
<path style="fill:none;stroke-width:0.79701;stroke-linecap:butt;stroke-linejoin:miter;stroke:rgb(38.431373%,61.960784%,12.156863%);stroke-opacity:1;stroke-miterlimit:10;" d="M 63.99315 39.684808 L 73.630606 39.684808 " transform="matrix(3.449675,0,0,-4.368832,-121.716518,207.837207)"/>
<path style="fill-rule:nonzero;fill:rgb(38.431373%,61.960784%,12.156863%);fill-opacity:1;stroke-width:0.79701;stroke-linecap:butt;stroke-linejoin:miter;stroke:rgb(38.431373%,61.960784%,12.156863%);stroke-opacity:1;stroke-miterlimit:10;" d="M 5.440713 -0.000543023 L 1.287242 1.570422 L 2.664183 -0.000543023 L 1.287242 -1.570614 Z M 5.440713 -0.000543023 " transform="matrix(3.449675,0,0,-4.368832,123.78209,34.458565)"/>
<path style="fill:none;stroke-width:0.79701;stroke-linecap:butt;stroke-linejoin:miter;stroke:rgb(38.431373%,61.960784%,12.156863%);stroke-opacity:1;stroke-miterlimit:10;" d="M 63.99315 34.57582 L 74.37343 27.308432 " transform="matrix(3.449675,0,0,-4.368832,-121.716518,207.837207)"/>
<path style="fill-rule:nonzero;fill:rgb(38.431373%,61.960784%,12.156863%);fill-opacity:1;stroke-width:0.79701;stroke-linecap:butt;stroke-linejoin:miter;stroke:rgb(38.431373%,61.960784%,12.156863%);stroke-opacity:1;stroke-miterlimit:10;" d="M 5.440833 -0.000556658 L 1.287207 1.571073 L 2.663909 -0.00062873 L 1.287051 -1.570236 Z M 5.440833 -0.000556658 " transform="matrix(2.825974,2.505394,1.978285,-3.578947,127.883263,82.354857)"/>
<path style="fill:none;stroke-width:0.79701;stroke-linecap:butt;stroke-linejoin:miter;stroke:rgb(38.431373%,61.960784%,12.156863%);stroke-opacity:1;stroke-miterlimit:10;" d="M 61.900562 32.393279 L 77.444371 10.636714 " transform="matrix(3.449675,0,0,-4.368832,-121.716518,207.837207)"/>
<path style="fill-rule:nonzero;fill:rgb(38.431373%,61.960784%,12.156863%);fill-opacity:1;stroke-width:0.79701;stroke-linecap:butt;stroke-linejoin:miter;stroke:rgb(38.431373%,61.960784%,12.156863%);stroke-opacity:1;stroke-miterlimit:10;" d="M 5.440438 0.000361907 L 1.287043 1.571497 L 2.664538 0.000192158 L 1.286469 -1.570502 Z M 5.440438 0.000361907 " transform="matrix(2.00509,3.554745,2.806863,-2.53934,140.496668,152.606862)"/>
</g>
</svg>
